<?xml version="1.0" standalone="no"?>
<!DOCTYPE svg PUBLIC "-//W3C//DTD SVG 1.1//EN" "http://www.w3.org/Graphics/SVG/1.1/DTD/svg11.dtd" >
<svg xmlns="http://www.w3.org/2000/svg">
<metadata>
This is a custom SVG webfont generated by Font Squirrel.
Copyright   : Copr Luc as  de Groot 1994
Foundry     : Copr Luc as de Groot
</metadata>
<defs>
<font id="TheSerifRegular" horiz-adv-x="1116" >
<font-face units-per-em="2048" ascent="1638" descent="-410" />
<missing-glyph horiz-adv-x="446" />
<glyph unicode=" "  horiz-adv-x="446" />
<glyph unicode="&#x09;" horiz-adv-x="446" />
<glyph unicode="&#xa0;" horiz-adv-x="446" />
<glyph unicode="!" horiz-adv-x="616" d="M184 102q0 51 35 86t88 35t88 -34.5t35 -86.5q0 -51 -35 -85.5t-88 -34.5t-88 34.5t-35 85.5zM199 1448h219l-31 -1104h-156z" />
<glyph unicode="&#x22;" horiz-adv-x="749" d="M106 1513h195l-31 -471h-135zM449 1513h194l-29 -471h-137z" />
<glyph unicode="#" horiz-adv-x="1396" d="M59 391v131h312l41 381h-295v131h309l37 348h155l-36 -348h299l37 348h157l-37 -348h295v-131h-307l-41 -381h293v-131h-307l-41 -391h-158l41 391h-299l-41 -391h-158l41 391h-297zM528 522h299l41 381h-299z" />
<glyph unicode="$" horiz-adv-x="1009" d="M119 926q0 68 23.5 125t67.5 102t105.5 74.5t135.5 42.5v215h137v-207q66 -2 123 -10t108 -19v-303h-121q-18 90 -24 168q-53 12 -115 12q-70 0 -118 -15t-78.5 -39.5t-44 -57.5t-13.5 -66q0 -68 44 -108.5t109.5 -71.5t142.5 -60.5t142.5 -71.5t109.5 -106.5t44 -164.5 q0 -141 -91 -243t-255 -132v-266h-137v258q-139 0 -258 32v312h118q10 -47 16.5 -89t10.5 -81q33 -8 70 -13.5t67 -5.5q55 0 104.5 11.5t85.5 36t56.5 63.5t20.5 92q0 70 -43.5 111t-109 71.5t-141 59t-141 70.5t-108.5 107t-43 167z" />
<glyph unicode="&#x26;" horiz-adv-x="1675" d="M115 381q0 70 21.5 131t59 115.5t90 104.5t115.5 99q-55 63 -92 113.5t-59.5 93.5t-31.5 83t-9 81q0 63 23.5 120.5t69.5 100.5t114.5 68t156.5 25q160 0 244 -78t84 -201q0 -104 -58.5 -199.5t-195.5 -203.5q43 -47 97.5 -100.5t114 -109t120.5 -109.5t121 -103 q51 68 86 163t39 211q-39 4 -76 9.5t-72 13.5v113h498v-113q-37 -10 -80 -15.5t-84 -9.5q-12 -137 -58 -256.5t-120 -218.5q61 -49 116.5 -92t106.5 -80q39 -4 76 -10t72 -16v-111h-275q-59 41 -115.5 84t-111.5 90q-100 -88 -235.5 -141t-303.5 -53q-111 0 -194.5 30.5 t-140 85t-85 127t-28.5 158.5zM303 403q0 -55 20.5 -103t58.5 -85t92 -58.5t122 -21.5q123 0 217 42t160 102q-61 51 -126 109t-126.5 116.5t-116.5 114t-98 102.5q-104 -82 -153.5 -157t-49.5 -161zM391 1212q0 -51 33 -112.5t119 -159.5q86 70 130 135.5t44 143.5 q0 66 -37 109.5t-123 43.5q-72 0 -119 -44t-47 -116z" />
<glyph unicode="'" horiz-adv-x="407" d="M106 1513h195l-31 -471h-135z" />
<glyph unicode="(" horiz-adv-x="632" d="M143 582q0 113 14.5 232.5t48.5 244.5t87 253t133 257h170q-135 -219 -203.5 -467t-68.5 -510q0 -543 276 -987h-176q-84 133 -137.5 260t-86 249t-45 238.5t-12.5 229.5z" />
<glyph unicode=")" horiz-adv-x="632" d="M43 -395q141 223 208.5 466.5t67.5 518.5q0 262 -69.5 510t-204.5 469h174q158 -258 219.5 -510t61.5 -475q0 -113 -13.5 -230.5t-45 -239.5t-86 -249t-136.5 -260h-176z" />
<glyph unicode="*" horiz-adv-x="765" d="M78 1096l211 92l-211 94l69 119l185 -135l-23 229h137l-24 -229l186 135l68 -119l-211 -92l211 -94l-70 -119l-184 135l22 -229h-137l23 229l-185 -135z" />
<glyph unicode="+" horiz-adv-x="1153" d="M55 451v153h432v449h175v-449h436v-153h-436v-451h-175v451h-432z" />
<glyph unicode="," horiz-adv-x="466" d="M53 -246q98 106 110.5 178t-22.5 117q-23 27 -24.5 58.5t10.5 59.5t39 46t63 18q57 0 93 -45t33 -119.5t-54 -174t-170 -207.5z" />
<glyph unicode="-" horiz-adv-x="675" d="M96 440v148h484v-148h-484z" />
<glyph unicode="." horiz-adv-x="466" d="M106 109q0 53 37 90t90 37t90 -37t37 -90t-36.5 -90t-90.5 -37q-53 0 -90 37t-37 90z" />
<glyph unicode="/" horiz-adv-x="858" d="M82 0l528 1382h178l-526 -1382h-180z" />
<glyph unicode="0" horiz-adv-x="1255" d="M104 516q0 129 44.5 231.5t118 175t171 110.5t205.5 38q131 0 226.5 -41t158 -111.5t93 -168t30.5 -207.5q0 -131 -43 -235.5t-118 -177.5t-174 -111.5t-210 -38.5q-109 0 -200 31.5t-158.5 97t-105.5 167t-38 240.5zM291 532q0 -84 19.5 -155.5t59.5 -124.5t103.5 -84 t149.5 -31q70 0 131 28t108 79t75 123.5t28 162.5q0 82 -20.5 153t-61.5 122t-103.5 80.5t-146.5 29.5q-72 0 -133.5 -26.5t-108.5 -75.5t-73.5 -121t-26.5 -160z" />
<glyph unicode="1" horiz-adv-x="749" d="M51 936l303 117h150v-914q43 -4 90 -10t94 -16v-113h-598v113q51 10 107.5 16t115.5 10v742l-231 -99z" />
<glyph unicode="2" horiz-adv-x="987" d="M104 0v147l275 228q129 106 193.5 183t64.5 165t-53.5 143.5t-157.5 55.5q-41 0 -81 -8.5t-75 -22.5q-4 -41 -10 -84t-14 -86h-113v289q68 29 148.5 45t173.5 16q188 0 285.5 -90t97.5 -231q0 -115 -64.5 -210.5t-198.5 -201.5l-215 -178l-4 -2q37 2 94.5 4t127 3 t148.5 1h159v-166h-781z" />
<glyph unicode="3" horiz-adv-x="946" d="M92 -381l19 166q80 -29 180 -29q156 0 250 72t94 205q0 76 -34 128t-95.5 80.5t-148.5 37t-193 -4.5v148q211 0 330.5 74.5t119.5 212.5q0 98 -57 153.5t-162 55.5q-35 0 -70.5 -8.5t-64.5 -18.5q-4 -41 -9 -84t-15 -86h-113v289q66 29 136.5 44t156.5 15 q104 0 178 -26.5t121 -71.5t69.5 -105.5t22.5 -130.5q0 -119 -71.5 -211t-184.5 -135v-2q131 -27 208 -117t77 -215q0 -102 -41 -187t-115 -144.5t-176.5 -92t-227.5 -32.5q-47 0 -95 5t-89 15z" />
<glyph unicode="4" d="M29 152l569 903h238v-889h245v-166h-245v-260q47 -4 90 -10t82 -17v-106h-533v106q41 10 86 16.5t92 10.5v260h-594zM209 164q43 0 108.5 1t131.5 1h122h84v708h-2z" />
<glyph unicode="5" horiz-adv-x="956" d="M119 -391l16 168q31 -6 69 -10.5t77 -4.5q94 0 164.5 22.5t117.5 62.5t70.5 94.5t23.5 117.5t-24.5 116.5t-73.5 93.5t-121.5 62.5t-167.5 22.5h-54q-26 0 -56 -2v701h651v-181h-477v-362q127 0 224 -32t162.5 -88t99.5 -133t34 -169q0 -106 -44 -196.5t-122 -156 t-185.5 -102t-236.5 -36.5q-77 0 -147 12z" />
<glyph unicode="6" horiz-adv-x="1191" d="M135 559q0 221 54.5 387t151.5 276.5t230.5 166t292.5 55.5q16 0 45 -1t49 -3v-164q-29 4 -56.5 7t-55.5 3q-111 0 -195 -33.5t-145.5 -95t-101 -148.5t-60.5 -192q-4 -16 -8 -33.5t-8 -46.5l2 -2q47 78 134 123t204 45q98 0 177 -30.5t134 -88t84 -136.5t29 -177 q0 -109 -36 -199t-101.5 -154.5t-156.5 -101t-202 -36.5q-221 0 -341 154.5t-120 424.5zM346 461q0 -63 16.5 -121.5t50 -104t85 -72t123.5 -26.5q63 0 114 23.5t88 64.5t56.5 97.5t19.5 121.5q0 139 -72.5 219t-199.5 80q-72 0 -124 -24.5t-87 -64.5t-52.5 -90t-17.5 -103z " />
<glyph unicode="7" horiz-adv-x="946" d="M51 700v353h836v-156q-125 -281 -233.5 -605.5t-190.5 -684.5h-209q90 360 198.5 680.5t231.5 599.5q-8 0 -42 -1t-80 -1h-100h-104h-89h-56q-4 -45 -11 -90t-18 -95h-133z" />
<glyph unicode="8" horiz-adv-x="1128" d="M115 334q0 72 25.5 129t66.5 104t91 86t101 72h-2q-125 72 -193.5 158t-68.5 204q0 80 32 148t89 116t138 74.5t179 26.5q96 0 172 -24.5t129.5 -68.5t81 -104.5t27.5 -134.5q0 -111 -65.5 -196.5t-202.5 -171.5q55 -33 107 -70t94 -83t68 -102.5t26 -129.5 q0 -94 -37 -166t-101.5 -121t-149.5 -74.5t-179 -25.5q-104 0 -184 26.5t-134.5 73.5t-82 111.5t-27.5 142.5zM311 354q0 -98 67.5 -158.5t186.5 -60.5q104 0 177 54.5t73 152.5q0 51 -19.5 93t-55 78t-85 68.5t-108.5 65.5h-2q-104 -61 -169 -131t-65 -162zM328 1098 q0 -86 63.5 -146.5t177.5 -124.5h2q117 74 169.5 135.5t52.5 139.5q0 82 -58.5 140t-171.5 58t-174 -58t-61 -144z" />
<glyph unicode="9" horiz-adv-x="1191" d="M100 578q0 104 35 194t99.5 156.5t153.5 103.5t200 37q102 0 188 -35t148.5 -107.5t97.5 -184t35 -267.5q0 -215 -52.5 -380t-148.5 -275.5t-233.5 -166.5t-309.5 -56q-23 0 -57.5 3t-65.5 9v170q29 -8 67 -13.5t67 -5.5q219 0 339.5 112t170.5 323q4 20 8 50.5t8 53.5 h-2q-49 -72 -135 -114t-193 -42q-98 0 -176 31t-132 87t-83 137.5t-29 179.5zM295 608q0 -143 70.5 -221t199.5 -78q63 0 115.5 21.5t89.5 58.5t56.5 85t19.5 101q0 147 -70.5 242.5t-206.5 95.5q-61 0 -111 -23.5t-87 -65.5t-56.5 -97.5t-19.5 -118.5z" />
<glyph unicode=":" horiz-adv-x="526" d="M135 109q0 53 38 90t91 37t90 -37t37 -90t-37 -90t-90 -37t-91 37t-38 90zM135 707q0 53 38 90t91 37t90 -37t37 -90t-37 -90t-90 -37t-91 37t-38 90z" />
<glyph unicode=";" horiz-adv-x="526" d="M84 -246q98 106 110.5 178t-22.5 117q-23 27 -25 58.5t10.5 59.5t40 46t64.5 18q55 0 92 -45t34 -119.5t-54 -174t-170 -207.5zM135 707q0 53 38 90t91 37t90 -37t37 -90t-37 -90t-90 -37t-91 37t-38 90z" />
<glyph unicode="&#x3c;" horiz-adv-x="1026" d="M115 516l647 590l119 -119l-529 -469l529 -457l-117 -124z" />
<glyph unicode="=" horiz-adv-x="1200" d="M145 268v152h908v-152h-908zM145 618v152h908v-152h-908z" />
<glyph unicode="&#x3e;" horiz-adv-x="1026" d="M143 53l529 469l-529 457l117 125l649 -580l-647 -590z" />
<glyph unicode="?" horiz-adv-x="866" d="M147 1290l25 168q133 -8 238.5 -43t179.5 -88t112.5 -122.5t38.5 -145.5q0 -80 -30.5 -137.5t-73.5 -105.5t-90 -92t-80 -97.5t-43 -121t20 -161.5h-180q-35 100 -28.5 176t37 134.5t76.5 105.5t88 90t73 88t31 100q0 51 -29 94.5t-81 77t-125 54t-159 26.5zM240 102 q0 51 34.5 86t87.5 35t88 -34.5t35 -86.5q0 -51 -34.5 -85.5t-88.5 -34.5q-53 0 -87.5 34.5t-34.5 85.5z" />
<glyph unicode="@" horiz-adv-x="1705" d="M139 631q0 170 61.5 313t168 246.5t247 162t297.5 58.5q158 0 279 -48t204 -130t125 -190.5t42 -229.5q0 -119 -30 -206t-83 -144t-127 -86t-162 -29q-57 0 -96 16.5t-62.5 44t-31.5 61.5t-2 71h-4q-12 -35 -38 -69t-61 -61.5t-78 -45t-92 -17.5q-98 0 -140 61.5 t-42 178.5q0 96 26.5 182t78 150.5t128 102.5t179.5 38q59 0 119.5 -8.5t107.5 -18.5l-63 -354q-20 -111 7 -155t93 -44q98 0 154.5 76t56.5 248q0 90 -29 174t-89 149.5t-153.5 104.5t-224.5 39q-125 0 -234.5 -46t-191.5 -129t-129 -199t-47 -253q0 -119 35 -218 t103.5 -172t170 -113t232.5 -40q76 0 150.5 11.5t148.5 36.5v-144q-63 -23 -153.5 -34t-166.5 -11q-162 0 -288.5 49t-215 137.5t-134.5 212.5t-46 271zM666 616q0 -131 71 -131q78 0 140.5 98.5t95.5 264.5l16 82q-20 6 -45.5 8t-54.5 2q-59 0 -101.5 -31.5t-69 -81 t-39.5 -106t-13 -105.5z" />
<glyph unicode="A" horiz-adv-x="1415" d="M12 0v111q29 6 63 13t62 9l459 1249h221l461 -1249q29 -2 62.5 -9t62.5 -13v-111h-496v109q37 10 79 16t83 10l-80 221h-579l-80 -221q41 -4 83 -10t79 -16v-109h-480zM459 506h481l-178 481q-20 53 -34.5 103.5t-27.5 103.5h-4q-12 -51 -27.5 -103.5t-35.5 -105.5z" />
<glyph unicode="B" horiz-adv-x="1226" d="M57 0v109q82 23 179 28v1108q-96 6 -179 29v108h174q74 0 180.5 3.5t231.5 3.5q227 0 338 -88.5t111 -243.5q0 -109 -69 -198t-179 -124v-4q72 -12 125 -43t87 -74t50 -95t16 -105q0 -61 -22.5 -135t-83 -137.5t-163.5 -105.5t-265 -42q-61 0 -156.5 3t-195.5 3h-179z M422 158q29 -4 73 -7.5t103 -3.5q170 0 248 73t78 188q0 68 -29 112.5t-78 72.5t-117.5 39t-148.5 11h-25h-36q-19 0 -37.5 -1t-30.5 -1v-483zM422 786q29 -2 60 -2h67q172 0 259 63.5t87 178.5q0 45 -13.5 84t-46 67.5t-88 44t-137.5 15.5q-49 0 -97 -1t-91 -3v-447z" />
<glyph unicode="C" horiz-adv-x="1210" d="M94 655q0 160 40 296t124 235.5t212 155t306 55.5q80 0 163 -11.5t161 -29.5v-336h-133q-10 51 -16.5 97t-10.5 87q-53 14 -103.5 19.5t-101.5 5.5q-113 0 -194.5 -42t-135 -115t-79 -172t-25.5 -214q0 -252 113.5 -393t365.5 -141q82 0 169 19t153 52l12 -172 q-84 -31 -180 -50t-201 -19q-317 0 -478 178t-161 495z" />
<glyph unicode="D" horiz-adv-x="1449" d="M57 0v109q82 23 179 28v1108q-96 6 -179 29v108h174q82 0 193 3.5t223 3.5q166 0 298 -40t223.5 -123t139.5 -212t48 -307t-57.5 -311.5t-160 -223.5t-243.5 -135t-311 -45q-104 0 -197.5 4t-150.5 4h-179zM422 164q41 -6 91 -9t93 -3q121 0 222.5 31.5t174 98t113.5 169 t41 243.5q0 266 -128 403.5t-398 137.5q-55 0 -111.5 -2t-97.5 -4v-1065z" />
<glyph unicode="E" horiz-adv-x="1087" d="M57 0v109q82 23 179 28v1108q-96 6 -179 29v108h893v-319h-131q-10 47 -16 92t-10 80h-371v-455h295q6 39 12 74t16 68h115v-420h-115q-18 66 -28 141h-295v-491h373q4 41 11 85t17 91h131v-328h-897z" />
<glyph unicode="F" horiz-adv-x="1028" d="M57 0v109q82 23 179 28v1108q-96 6 -179 29v108h895v-321h-131q-10 47 -17 89t-11 83h-371v-465h303q6 37 13 71.5t16 67.5h114v-424h-114q-16 66 -29 140h-303v-486q96 -6 178 -28v-109h-543z" />
<glyph unicode="G" horiz-adv-x="1423" d="M88 664q0 160 51 295t147.5 233t234.5 153.5t310 55.5q96 0 188.5 -13.5t184.5 -35.5v-326h-135q-18 102 -25 182q-117 31 -229 31q-106 0 -201.5 -34t-168 -103.5t-114.5 -173t-42 -242.5q0 -129 35.5 -229.5t103.5 -170t162 -105.5t211 -36q70 0 129 10.5t114 26.5v385 q-47 4 -92 10.5t-84 16.5v111h498v-113q-66 -16 -135 -25v-506q-104 -39 -223 -59t-234 -20q-158 0 -283.5 46t-216 134t-138.5 215t-48 287z" />
<glyph unicode="H" horiz-adv-x="1550" d="M57 0v109q82 23 179 28v1108q-96 6 -179 29v108h531v-110q-39 -10 -81 -16.5t-85 -10.5v-448h706v448q-41 4 -84 10.5t-79 16.5v110h528v-108q-82 -23 -178 -29v-1108q96 -6 178 -28v-109h-528v111q37 10 79.5 16t83.5 10v500h-706v-500q43 -4 85 -10t81 -16v-111h-531z " />
<glyph unicode="I" horiz-adv-x="657" d="M57 0v109q82 23 179 28v1108q-96 6 -179 29v108h543v-108q-82 -23 -178 -29v-1108q96 -6 178 -28v-109h-543z" />
<glyph unicode="J" horiz-adv-x="708" d="M10 2v164q29 -10 66 -16.5t76 -6.5q41 0 72.5 10.5t53 36t33 69.5t11.5 114v872q-96 6 -179 29v108h508v-110q-33 -10 -68.5 -16.5t-72.5 -10.5v-885q0 -86 -18.5 -155.5t-59.5 -117.5t-107.5 -74.5t-160.5 -26.5q-84 0 -154 16z" />
<glyph unicode="K" horiz-adv-x="1363" d="M57 0v109q82 23 179 28v1108q-96 6 -179 29v108h518v-110q-35 -10 -76.5 -16.5t-76.5 -10.5v-526l493 528q-35 4 -71.5 9.5t-69.5 15.5v110h514v-110q-33 -8 -70.5 -14.5t-72.5 -10.5l-508 -530l539 -582q35 -4 72.5 -10t70.5 -14v-111h-524v111q66 16 129 22l-502 561 v-557q35 -4 77 -10t76 -16v-111h-518z" />
<glyph unicode="L" horiz-adv-x="962" d="M57 0v109q82 23 179 28v1108q-96 6 -179 29v108h543v-108q-82 -23 -178 -29v-1091h354q4 41 12.5 89t18.5 97h129v-340h-879z" />
<glyph unicode="M" horiz-adv-x="1902" d="M29 0v111q27 8 61.5 14t63.5 8l168 1112q-96 6 -179 29v108h430l293 -870q25 -76 45.5 -144.5t30.5 -129.5h4q16 72 33.5 130t42.5 132l301 882h434v-108q-82 -23 -178 -29l172 -1112q29 -2 62.5 -8t60.5 -14v-111h-483v109q35 10 76.5 16t82.5 10l-100 686 q-16 117 -26.5 193t-14.5 129h-4q-12 -53 -29.5 -116.5t-42.5 -137.5l-295 -889h-202l-281 829q-27 78 -51.5 160t-34.5 154h-4q-6 -78 -16.5 -160t-20.5 -174l-84 -674q41 -4 84 -10t78 -16v-109h-477z" />
<glyph unicode="N" horiz-adv-x="1540" d="M57 0v109q41 10 86 18t93 12v1106q-96 6 -179 29v108h426l529 -847q45 -72 83 -142.5t79 -144.5q-6 86 -8.5 197.5t-4.5 238.5t-2 269v290q-41 4 -82 11.5t-78 17.5v110h484v-110q-68 -20 -142 -29v-1243h-245l-535 856q-47 76 -85 147.5t-70 139.5q10 -180 11 -442.5 t1 -561.5q41 -4 84 -11t80 -17v-111h-525z" />
<glyph unicode="O" horiz-adv-x="1443" d="M86 676q0 172 51 307t140.5 228.5t209 142.5t254.5 49q139 0 253 -45t195 -133t125 -218t44 -300q0 -172 -52.5 -307.5t-141.5 -228.5t-207.5 -142t-254.5 -49q-156 0 -271.5 50t-192 141t-114.5 219t-38 286zM287 702q0 -123 26.5 -225t79.5 -176t134 -114t192 -40 q84 0 163 34t140 101.5t98 168t37 233.5q0 268 -113.5 410.5t-322.5 142.5q-86 0 -165 -35t-138.5 -102.5t-95 -167t-35.5 -230.5z" />
<glyph unicode="P" horiz-adv-x="1103" d="M57 0v109q82 23 179 28v1108q-96 6 -179 29v108h152q25 0 65.5 1t90 3.5t103.5 3.5t105 1q242 0 368 -110t126 -296q0 -102 -40 -186t-110.5 -145.5t-168 -95.5t-213.5 -34h-57q-28 0 -56 4v-391q96 -6 178 -28v-109h-543zM422 688q27 -4 55.5 -6t57.5 -2q156 2 246.5 79 t90.5 208q0 129 -77.5 198.5t-239.5 69.5h-71q-32 0 -62 -2v-545z" />
<glyph unicode="Q" horiz-adv-x="1441" d="M86 676q0 172 51 307t140.5 228.5t209 142.5t254.5 49q139 0 253 -45t195 -133t125 -218t44 -300q0 -172 -52.5 -307.5t-141.5 -228.5t-207.5 -142t-254.5 -49q-156 0 -271.5 50t-192 141t-114.5 219t-38 286zM287 702q0 -123 26.5 -225t79.5 -176t134 -114t192 -40 q84 0 163 34t140 101.5t98 168t37 233.5q0 268 -113.5 410.5t-322.5 142.5q-86 0 -165 -35t-138.5 -102.5t-95 -167t-35.5 -230.5zM655 -147q59 7 111 7q21 0 40 -1q69 -4 129 -14.5t116.5 -25t116 -24.5t125.5 -14q17 -1 34 -1q52 0 113 9v-168q-77 -11 -143 -11 q-47 0 -89 6q-98 13 -185 33.5t-173 36.5q-44 8 -95 8q-47 0 -100 -7v166z" />
<glyph unicode="R" horiz-adv-x="1206" d="M57 0v109q82 23 179 28v1108q-96 6 -179 29v108h160q41 0 139.5 4.5t225.5 4.5q102 0 188 -19.5t148.5 -62.5t97.5 -112t35 -167q0 -84 -30 -150.5t-83 -115.5t-126 -80t-157 -39q23 -29 46.5 -60.5t43.5 -64.5l261 -381q35 -4 75.5 -10t81.5 -16v-113h-305l-401 621h-35 v-484q39 -4 79 -10t74 -16v-111h-518zM422 762q16 -2 47 -3t72 -1q150 0 231.5 68.5t81.5 179.5q0 125 -78 178t-227 53q-37 0 -67.5 -1t-59.5 -3v-471z" />
<glyph unicode="S" horiz-adv-x="1034" d="M104 1010q0 86 33 157.5t96.5 123.5t153.5 81t207 29q72 0 135.5 -7.5t130.5 -19.5v-317h-135q-18 96 -25 178q-23 4 -54.5 7t-59.5 3q-141 0 -213 -58.5t-72 -156.5q0 -76 47 -120t117 -77.5t151.5 -63.5t151.5 -74t117 -111.5t47 -175.5q0 -92 -36 -171t-101.5 -135.5 t-160.5 -88t-214 -31.5q-162 0 -295 34v328h135q10 -51 16.5 -96t10.5 -86q33 -8 70.5 -13.5t72.5 -5.5q63 0 118.5 13.5t96.5 42t65.5 73.5t24.5 109q0 78 -47 124t-116.5 78.5t-151.5 61.5t-151.5 73t-117 112.5t-47.5 179.5z" />
<glyph unicode="T" horiz-adv-x="1148" d="M39 1038v344h1071v-344h-129q-10 59 -17.5 105.5t-11.5 85.5h-284v-1092q96 -6 178 -28v-109h-543v109q82 23 178 28v1092h-284q-4 -39 -11.5 -85t-17.5 -106h-129z" />
<glyph unicode="U" horiz-adv-x="1464" d="M57 1272v110h492v-110q-37 -10 -80 -16.5t-84 -10.5v-766q0 -72 14.5 -134t53.5 -109.5t105.5 -74t170.5 -26.5q180 0 267 85t87 294v731q-41 4 -83 10.5t-80 16.5v110h489v-110q-35 -10 -69.5 -16.5t-71.5 -10.5v-719q0 -274 -138.5 -410t-412.5 -136 q-162 0 -263.5 40.5t-157.5 109.5t-76.5 156t-20.5 179v780q-37 4 -73 10.5t-69 16.5z" />
<glyph unicode="V" horiz-adv-x="1386" d="M12 1272v110h494v-108q-35 -10 -78 -16.5t-84 -10.5l256 -753q23 -59 46.5 -134t45.5 -153h2q18 74 42 145.5t52 155.5l267 739q-41 4 -83 10.5t-79 16.5v108h479v-110q-25 -8 -59.5 -14.5t-63.5 -8.5l-456 -1249h-211l-445 1249q-29 2 -63.5 8.5t-61.5 14.5z" />
<glyph unicode="W" horiz-adv-x="2000" d="M14 1272v110h486v-108q-37 -10 -80 -16.5t-84 -10.5l194 -766q18 -70 31.5 -134t24.5 -132h2q23 135 55 256l256 911h213l266 -917q16 -55 29.5 -118.5t24.5 -127.5h2q10 59 21 114.5t26 110.5l198 803q-41 4 -83 10.5t-78 16.5v108h469v-110q-25 -8 -60 -14.5t-63 -8.5 l-322 -1249h-231l-264 930q-16 59 -28.5 119.5t-23.5 119.5h-2q-14 -117 -49 -237l-258 -932h-225l-324 1249q-29 2 -62.5 8.5t-60.5 14.5z" />
<glyph unicode="X" horiz-adv-x="1382" d="M23 0v111q35 8 71.5 14t73.5 8l407 574l-387 542q-35 2 -71.5 8.5t-69.5 14.5v110h531v-110q-35 -10 -73 -15.5t-77 -9.5l272 -405l277 405q-82 6 -148 25v110h506v-110q-35 -8 -72.5 -14.5t-74.5 -10.5l-383 -534l418 -580q35 -2 71.5 -8t67.5 -14v-111h-533v111 q35 10 72 15t74 9l-297 440l-295 -440q35 -4 74 -9t73 -15v-111h-507z" />
<glyph unicode="Y" horiz-adv-x="1218" d="M12 1272v110h486v-110q-70 -18 -152 -25l166 -362q27 -55 51.5 -110.5t46.5 -110.5h4q23 59 51.5 118.5t55.5 116.5l164 348q-41 4 -79 9.5t-73 15.5v110h471v-110q-25 -8 -59.5 -14.5t-63.5 -8.5l-383 -760v-352q96 -6 179 -28v-109h-543v109q82 23 178 28v350l-375 762 q-29 2 -63.5 8.5t-61.5 14.5z" />
<glyph unicode="Z" horiz-adv-x="1103" d="M90 0v139l594 922q29 45 56.5 85t58.5 81q-51 -2 -120 -3t-161 -1h-250q-4 -37 -10 -81t-14 -95h-135v335h903v-143l-627 -958q-20 -31 -38.5 -61t-41.5 -60q31 4 113 4h194h246q4 41 10 85t17 97h131v-346h-926z" />
<glyph unicode="[" horiz-adv-x="659" d="M176 -408v1987h406v-141h-234v-1700h234v-146h-406z" />
<glyph unicode="\" horiz-adv-x="837" d="M66 1382h170l534 -1382h-174z" />
<glyph unicode="]" horiz-adv-x="659" d="M78 -262h233v1700h-233v141h405v-1987h-405v146z" />
<glyph unicode="^" horiz-adv-x="1095" d="M127 770l338 612h147l355 -610l-138 -70l-294 543l-283 -543z" />
<glyph unicode="_" horiz-adv-x="1024" d="M0 -371h1024v-145h-1024v145z" />
<glyph unicode="`" horiz-adv-x="755" d="M195 1378l94 129l291 -225l-76 -106z" />
<glyph unicode="a" horiz-adv-x="1105" d="M94 233q0 168 162 264.5t451 98.5v78q0 109 -46.5 164t-171.5 55q-47 0 -96 -6t-92 -19q-4 -39 -10 -81t-15 -85h-112v281q72 27 160 41t188 14q111 0 183.5 -24.5t116.5 -69.5t61.5 -107.5t17.5 -138.5v-555q37 -6 84 -11t88 -9v-109q-37 -4 -80 -8t-89 -6t-91 -2t-86 2 q0 53 1 106.5t9 96.5h-4q-37 -94 -128 -157.5t-218 -63.5t-205 64t-78 187zM274 266q0 -66 42 -103.5t114 -37.5q61 0 112.5 27.5t88.5 73.5t56.5 104.5t19.5 118.5v18q-127 0 -210 -17.5t-132.5 -45t-70 -64.5t-20.5 -74z" />
<glyph unicode="b" horiz-adv-x="1163" d="M16 1372v109q78 10 175 14q49 2 96 2t92 -2v-494q0 -45 -4 -98t-15 -92l5 -2q41 109 130 168t205 59q180 0 277.5 -121.5t97.5 -357.5q0 -133 -37 -239.5t-105.5 -180.5t-166.5 -112.5t-221 -38.5q-106 0 -187.5 9t-162.5 32v1325q-37 6 -85.5 11t-93.5 9zM379 156 q41 -12 84 -18.5t96 -6.5q74 0 133.5 22.5t101.5 71.5t65.5 127t23.5 189q0 166 -54.5 255t-171.5 89q-70 0 -122 -37t-86.5 -93.5t-52 -126t-17.5 -134.5v-338z" />
<glyph unicode="c" horiz-adv-x="913" d="M84 475q0 123 31.5 225.5t95 176t160 114.5t225.5 41q59 0 124.5 -9t119.5 -26v-297h-115q-10 45 -16.5 87t-10.5 79q-27 10 -59.5 14.5t-67.5 4.5q-143 0 -219 -102.5t-76 -276.5q0 -78 14.5 -144.5t49.5 -114.5t94.5 -76t149.5 -28q66 0 131 14.5t119 41.5l12 -160 q-55 -20 -132 -36.5t-169 -16.5q-94 0 -178 23.5t-146.5 80.5t-99.5 150.5t-37 234.5z" />
<glyph unicode="d" horiz-adv-x="1181" d="M84 461q0 133 37 239.5t105.5 180t165.5 112.5t218 39q41 0 83 -3t89 -7v330q-37 6 -85 11t-93 9v109q78 10 175 14q49 2 96 2t92 -2v-1352q37 -6 84 -11t88 -9v-109q-72 -10 -169 -14q-49 -2 -94.5 -2t-87.5 2q0 43 3.5 102.5t13.5 104.5l-4 2q-43 -104 -132 -165.5 t-210 -61.5q-188 0 -281.5 128t-93.5 351zM279 477q0 -166 54 -255t171 -89q70 0 122 37t87 93t52 126t17 137v338q-47 12 -92 17.5t-88 5.5q-74 0 -133 -22.5t-101 -72t-65.5 -127t-23.5 -188.5z" />
<glyph unicode="e" horiz-adv-x="1040" d="M84 504q0 115 30.5 212t89 168.5t142.5 111.5t193 40q106 0 184 -33.5t127 -92t72.5 -136.5t23.5 -166q0 -37 -6 -88h-666v-28q0 -183 76 -269q82 -92 246 -92q78 0 156.5 17.5t140.5 46.5l16 -150q-152 -63 -344 -63q-236 0 -358.5 126t-122.5 396zM283 651h475v14 q0 103 -58 168q-61 69 -170 68q-100 0 -165.5 -68.5t-81.5 -181.5z" />
<glyph unicode="f" horiz-adv-x="737" d="M20 874v144h224v76q0 211 101 312t294 101q43 0 84 -4t86 -14l-16 -154q-39 12 -78 17.5t-76 5.5q-109 0 -160 -63.5t-51 -198.5v-78h285v-144h-285v-737q96 -6 178 -28v-109h-540v109q82 23 178 28v737h-224z" />
<glyph unicode="g" horiz-adv-x="1138" d="M84 -231q0 92 49 160.5t119 103.5q-47 23 -73.5 60.5t-26.5 88.5q0 53 30.5 99.5t81.5 72.5q-72 41 -110.5 116t-38.5 175q0 80 29.5 150.5t87 125t140.5 85t191 30.5q82 0 160 -18h346v-146h-172q41 -31 63.5 -82t22.5 -116q0 -82 -27.5 -151.5t-84 -120t-140.5 -79 t-194 -28.5q-31 0 -66 3t-61 11q-35 -16 -49.5 -38.5t-14.5 -47.5q0 -43 41 -61.5t133 -18.5h189q166 0 256 -74.5t90 -209.5q0 -82 -40 -154t-112 -124t-172 -81.5t-219 -29.5q-199 0 -313.5 76t-114.5 223zM268 -197q0 -92 77 -139t196 -47q158 0 243.5 59.5t85.5 157.5 q0 72 -52 114t-161 42h-200h-64q-59 -31 -92 -79.5t-33 -107.5zM297 662q0 -115 65.5 -174.5t186.5 -59.5q117 0 184.5 59.5t67.5 174.5q0 111 -63.5 174t-182.5 63q-123 0 -190.5 -66.5t-67.5 -170.5z" />
<glyph unicode="h" horiz-adv-x="1263" d="M43 0v109q82 23 178 28v1215q-37 6 -85 11t-93 9v109q78 10 175 14q49 2 95 2t90 -2v-481q0 -49 -3 -105.5t-13 -97.5l4 -2q45 104 135 166.5t219 62.5q88 0 146.5 -25.5t93.5 -69.5t50.5 -103.5t15.5 -126.5v-576q45 -4 90 -11t82 -17v-109h-355v657q0 109 -36.5 168.5 t-137.5 59.5q-63 0 -116.5 -30t-92.5 -83t-60.5 -126t-21.5 -157v-352q43 -4 85 -10t81 -16v-111h-526z" />
<glyph unicode="i" horiz-adv-x="636" d="M59 0v109q82 23 179 28v737q-37 6 -85.5 11.5t-93.5 9.5v109q78 10 175 14q49 2 96 2t92 -2v-881q92 -6 172 -28v-109h-535zM209 1307q0 49 36 83.5t87 34.5q49 0 85 -33.5t36 -84.5q0 -49 -36 -85t-85 -36q-51 0 -87 35t-36 86z" />
<glyph unicode="j" horiz-adv-x="600" d="M-72 -502l15 160q29 -10 63.5 -16.5t69.5 -6.5q47 0 78.5 11.5t51 38t28 72.5t8.5 114v1003q-37 6 -85 11.5t-94 9.5v109q78 10 176 14q49 2 95.5 2t91.5 -2v-1131q0 -102 -18.5 -179t-59.5 -127t-108.5 -75.5t-167.5 -25.5q-35 0 -73 4t-71 14zM213 1307q0 49 35 83.5 t86 34.5t87 -33.5t36 -84.5q0 -49 -36 -85t-87 -36t-86 35t-35 86z" />
<glyph unicode="k" horiz-adv-x="1136" d="M43 0v109q82 23 178 28v1215q-37 6 -85 11t-93 9v109q78 10 175 14q49 2 95 2t90 -2v-942l297 330q-37 4 -67.5 9t-52.5 15v111h485v-111q-31 -10 -69 -16t-76 -10l-308 -328l322 -414q37 -4 80 -11t84 -15v-113h-299l-396 532v-395q41 -4 81 -10t73 -16v-111h-514z" />
<glyph unicode="l" horiz-adv-x="618" d="M43 0v109q82 23 178 28v1215q-37 6 -85 11t-93 9v109q78 10 175 14q49 2 95 2t90 -2v-1358q94 -6 175 -28v-109h-535z" />
<glyph unicode="m" horiz-adv-x="1902" d="M59 0v109q82 23 179 28v737q-37 6 -85.5 11.5t-93.5 9.5v109q78 10 175 14q49 2 95 2t89 -2q0 -45 -4 -105.5t-13 -107.5l5 -2q43 109 136 172t216 63q80 0 133 -24.5t85 -60t46 -75.5t18 -71q14 37 43 77t72 74.5t101.5 57t132.5 22.5q145 0 223 -79.5t78 -253.5v-568 q96 -6 172 -28v-109h-355v653q0 106 -33.5 169t-132.5 63q-55 0 -106 -28t-91 -80t-64.5 -125.5t-24.5 -166.5v-348q41 -4 84 -10t82 -16v-111h-349v655q0 47 -6 89t-24.5 73t-51 49.5t-83.5 18.5q-59 0 -110.5 -30t-90.5 -83t-61.5 -126t-22.5 -161v-348q41 -4 84 -10 t80 -16v-111h-527z" />
<glyph unicode="n" horiz-adv-x="1280" d="M59 0v109q82 23 179 28v737q-37 6 -85.5 11.5t-93.5 9.5v109q78 10 174 14q48 2 94 2t89 -2q0 -45 -3 -106.5t-12 -106.5l2 -2q45 106 136.5 170.5t224.5 64.5q86 0 145.5 -25.5t94 -69.5t50 -103.5t15.5 -126.5v-576q92 -6 172 -28v-109h-356v657q0 109 -36 168.5 t-136 59.5q-63 0 -116.5 -30t-92.5 -83t-60.5 -126t-21.5 -157v-352q41 -4 84 -10t80 -16v-111h-527z" />
<glyph unicode="o" d="M80 500q0 113 33.5 210t98 169.5t157 114.5t206.5 42q98 0 182.5 -27.5t146 -89t96 -158.5t34.5 -235q0 -115 -35.5 -214t-100 -172.5t-157 -115.5t-204.5 -42q-104 0 -188.5 30.5t-144 94t-92 161t-32.5 232.5zM272 518q0 -186 73 -283.5t214 -97.5q57 0 108.5 22.5 t90.5 69.5t61.5 118t22.5 169q0 174 -71 270.5t-212 96.5q-55 0 -107.5 -21.5t-92.5 -66.5t-63.5 -114t-23.5 -163z" />
<glyph unicode="p" horiz-adv-x="1202" d="M57 -395q41 10 86 16t93 10v1243q-37 6 -85.5 11.5t-93.5 9.5v109q78 10 175 14q49 2 94 2t86 -2q0 -43 -2 -103.5t-13 -103.5l4 -2q43 106 131.5 166.5t208.5 60.5q180 0 277.5 -121.5t97.5 -357.5q0 -274 -138 -421.5t-386 -147.5q-47 0 -87 2t-85 10v-369 q47 -4 92 -10t86 -16v-111h-541v111zM420 156q80 -25 180 -25q72 0 131.5 22.5t102.5 71.5t66.5 127t23.5 189q0 166 -54.5 255t-171.5 89q-70 0 -122 -37t-86.5 -93.5t-52 -126t-17.5 -136.5v-336z" />
<glyph unicode="q" horiz-adv-x="1142" d="M88 459q0 270 141.5 422.5t395.5 152.5q92 0 179 -8t165 -20v-1375q47 -4 91 -10t85 -16v-111h-537v111q41 10 86 16t92 10v392q0 35 2.5 85t12.5 97l-4 2q-41 -104 -129 -164.5t-203 -60.5q-180 0 -278.5 118.5t-98.5 358.5zM283 477q0 -166 53 -255t170 -89 q70 0 122 37t87 93t53 127t18 138v338q-88 20 -182 21q-145 0 -233 -95.5t-88 -314.5z" />
<glyph unicode="r" horiz-adv-x="802" d="M59 0v109q82 23 179 28v737q-37 6 -85.5 11.5t-93.5 9.5v109q78 10 174 14q48 2 94 2t89 -2q0 -47 -5 -112.5t-16 -129.5h2q16 53 45 103.5t74 88.5t107 57q43 14 97 14q23 0 48 -3l-8 -180q-35 6 -67 6q-126 0 -190 -92q-81 -115 -81 -360v-273q96 -6 178 -28v-109h-541 z" />
<glyph unicode="s" horiz-adv-x="892" d="M96 731q0 131 104.5 218t305.5 87q53 0 114.5 -7t120.5 -21v-279h-112q-10 39 -15.5 80t-9.5 82q-57 10 -115 10q-104 0 -155 -40t-51 -109q0 -57 37.5 -89t94 -52.5t123 -38t123 -47t94.5 -80t38 -134.5q0 -70 -30 -130t-86 -104t-137 -69.5t-182 -25.5q-59 0 -123.5 6 t-115.5 20v289h112q8 -37 14.5 -79t10.5 -83q57 -10 121 -10q104 0 167.5 43t63.5 117q0 55 -38 85.5t-95 51t-122.5 38t-123 48.5t-95.5 83t-38 140z" />
<glyph unicode="t" horiz-adv-x="759" d="M6 874v144h209v330l184 51v-381h285v-144h-285v-520q0 -63 6.5 -104t23.5 -65.5t45 -34t71 -9.5q35 0 71.5 5.5t67.5 13.5v-156q-43 -10 -95 -15t-102 -5q-78 0 -130 16t-83.5 53t-45 95.5t-13.5 140.5v585h-209z" />
<glyph unicode="u" horiz-adv-x="1259" d="M43 895v109q72 10 168 14q48 2 95 2t93 -2v-658q0 -109 36 -168t136 -59q63 0 116.5 30t92.5 83t60.5 125.5t21.5 156.5v346q-35 6 -79 10.5t-85 8.5v111q74 10 167 14q47 2 91.5 2t87.5 -2v-875q37 -6 84.5 -11t90.5 -9v-109q-74 -10 -170 -14q-48 -2 -93.5 -2t-87.5 2 q0 47 3 106.5t12 106.5l-4 2q-43 -106 -135.5 -170.5t-223.5 -64.5q-88 0 -146.5 25.5t-94 69.5t-50 103.5t-14.5 126.5v569q-37 6 -84 11.5t-88 9.5z" />
<glyph unicode="v" horiz-adv-x="1144" d="M14 907v111h473v-111q-72 -20 -143 -22l170 -500q16 -49 31.5 -97t29.5 -102h3l28 99q14 49 31 96l176 504q-74 2 -145 22v111h467v-111q-31 -8 -64 -14t-67 -10l-322 -883h-221l-316 883q-35 4 -67.5 10t-63.5 14z" />
<glyph unicode="w" horiz-adv-x="1755" d="M12 907v111h469v-111q-68 -20 -141 -22l125 -457q16 -63 33.5 -122.5t29.5 -108.5h2q14 66 32 128t38 121l182 572h191l184 -572q29 -90 44.5 -144t27.5 -105h2q14 53 28.5 103t34.5 120l133 465q-74 4 -141 22v111h457v-111q-31 -8 -63.5 -14t-67.5 -10l-279 -883h-211 l-200 600q-16 47 -30.5 98.5t-27.5 104.5h-2q-16 -68 -34.5 -129.5t-39.5 -126.5l-170 -547h-212l-263 883q-35 4 -67.5 10t-63.5 14z" />
<glyph unicode="x" horiz-adv-x="1112" d="M18 0v113q45 10 89.5 17t85.5 11l249 369l-235 367q-41 4 -85 11t-87 17v113h311l215 -373l221 373h297v-113q-45 -10 -89 -17t-85 -11l-229 -359l246 -377q41 -4 84 -11t88 -17v-113h-322l-225 383l-223 -383h-306z" />
<glyph unicode="y" horiz-adv-x="1148" d="M12 907v111h467v-111q-61 -20 -133 -22l154 -443q25 -72 43 -131t35 -123h4q12 53 38.5 134t55.5 170l137 393q-72 2 -133 22v111h455v-111q-29 -8 -62 -14t-67 -10l-361 -992q-43 -117 -85 -195.5t-93 -127.5t-114.5 -69.5t-149.5 -20.5q-29 0 -68 3t-72 9l15 166 q35 -10 67.5 -16.5t67.5 -6.5q41 0 75 11.5t62.5 41t55 78t55.5 121.5l43 115h-45l-316 883q-35 4 -68.5 10t-62.5 14z" />
<glyph unicode="z" horiz-adv-x="923" d="M90 0v133l522 744q-45 -2 -113.5 -3.5t-138.5 -1.5h-120q-4 -39 -9.5 -74.5t-15.5 -76.5h-115v297h715v-133l-514 -735q20 0 51 1t65 2t69 1h67h133q4 35 10 74.5t17 80.5h114v-309h-737z" />
<glyph unicode="{" horiz-adv-x="698" d="M59 575v146q61 2 102.5 14.5t67 37t36.5 66.5t11 103v240q0 88 16.5 161.5t53.5 126t98.5 81t151.5 28.5h37v-141q-53 0 -89 -12.5t-57.5 -41t-31 -76.5t-9.5 -120v-238q0 -137 -48 -209.5t-142 -89.5v-4q92 -14 141 -91t49 -212v-356q0 -72 9.5 -120t31 -77t57.5 -41 t89 -12v-146h-37q-176 0 -248 99.5t-72 300.5v358q0 121 -49 170t-168 55z" />
<glyph unicode="|" horiz-adv-x="571" d="M211 -512v2048h145v-2048h-145z" />
<glyph unicode="}" horiz-adv-x="692" d="M78 -262q53 0 89 12t57.5 41t30.5 77t9 120v356q0 135 49 212t142 91v4q-190 25 -191 291v246q0 72 -9 120t-30.5 76.5t-57.5 41t-89 12.5v141h37q90 0 151.5 -28.5t98 -81t53 -126t16.5 -161.5v-232q0 -66 11.5 -108.5t37 -68t66.5 -38t102 -14.5v-146q-119 -6 -168 -55 t-49 -170v-358q0 -201 -71.5 -300.5t-247.5 -99.5h-37v146z" />
<glyph unicode="~" horiz-adv-x="1185" d="M100 592q47 41 117 77t158 36q76 0 130 -20.5t102 -45.5t96.5 -45.5t111.5 -20.5q51 0 105.5 29t101.5 70l61 -131q-53 -55 -124.5 -91t-155.5 -36q-76 0 -132.5 20.5t-106.5 45t-98 45t-106 20.5q-66 0 -115.5 -29t-84.5 -59z" />
<glyph unicode="&#xa1;" horiz-adv-x="616" d="M180 918q0 51 35 85.5t88 34.5t89 -34.5t36 -85.5t-36 -86t-89 -35t-88 35t-35 86zM199 -428l26 1104h154l29 -1104h-209z" />
<glyph unicode="&#xa2;" horiz-adv-x="966" d="M88 559q0 199 104.5 333t290.5 163v188h146v-182q55 0 115.5 -9.5t113.5 -23.5v-299h-115q-10 47 -16 88t-10 82q-66 16 -133 16q-139 0 -222 -91t-83 -255q0 -70 16 -130t54 -105t99.5 -71.5t151.5 -26.5q66 0 133.5 15t120.5 44l12 -162q-51 -20 -111.5 -35.5 t-125.5 -21.5v-215h-146v217q-193 18 -294 143t-101 338z" />
<glyph unicode="&#xa3;" horiz-adv-x="1075" d="M119 0v139q117 84 177 168t60 205q0 20 -4 62t-8 106h-223v141h207q-6 59 -14.5 130t-8.5 122q0 201 95.5 288t277.5 87q41 0 99.5 -6t105.5 -17v-295h-115q-8 43 -15.5 84t-11.5 80q-16 2 -33.5 3t-33.5 1q-92 0 -138.5 -57t-46.5 -156q0 -47 7.5 -116.5t15.5 -147.5 h293v-141h-279q4 -41 7.5 -78t3.5 -65q0 -63 -12.5 -115.5t-36 -99t-59.5 -87t-85 -83.5q29 4 71 6t85 2h303q10 88 28 178h127v-338h-839z" />
<glyph unicode="&#xa4;" horiz-adv-x="1126" d="M27 459v114h161q-2 23 -2 44v45v40q0 20 2 41h-161v117h174q18 121 60 221.5t109.5 172t160 110.5t210.5 39q63 0 132 -8.5t143 -24.5v-303h-115q-18 80 -22 160q-41 10 -81 15t-79 5q-74 0 -130.5 -28.5t-95 -80t-62 -123t-34.5 -155.5h387v-117h-395v-57v-56 q0 -28 2 -57h393v-114h-378q27 -160 106.5 -241t230.5 -81q70 0 140.5 14.5t130.5 43.5l22 -152q-72 -31 -160 -47t-180 -16q-211 0 -335.5 121.5t-159.5 357.5h-174z" />
<glyph unicode="&#xa5;" horiz-adv-x="1220" d="M18 1272v110h480v-110q-35 -10 -74 -15.5t-78 -9.5l162 -346q29 -59 55.5 -113.5t48.5 -107.5h2q25 57 56.5 118.5t60.5 121.5l156 327q-82 6 -152 25v110h469v-110q-27 -8 -61.5 -14.5t-63.5 -8.5l-325 -633h290v-114h-344v-142h344v-116h-344v-115q96 -6 179 -29v-100 h-543v100q82 23 178 29v115h-342v116h342v142h-342v114h289l-318 633q-29 2 -63.5 8.5t-61.5 14.5z" />
<glyph unicode="&#xa7;" horiz-adv-x="1011" d="M145 727q0 90 38 163t98 120q-27 35 -43.5 87t-16.5 101q0 63 21.5 122.5t66.5 103.5t116 71t167 27q37 0 75 -4.5t66 -10.5l-14 -155q-33 10 -64.5 14t-70.5 4q-88 0 -128 -43t-40 -121q0 -51 32.5 -104t82 -108.5t106.5 -117t106.5 -127t82 -139t32.5 -155.5 q0 -86 -38 -158t-95 -119q25 -37 44 -91t19 -112q0 -57 -21.5 -115.5t-68.5 -104.5t-120.5 -74.5t-178.5 -28.5q-37 0 -78.5 5t-72.5 13l14 164q33 -10 71 -17t77 -7q98 0 141 47t43 118q0 53 -33 107.5t-83 111t-108.5 116t-108.5 125t-83 138t-33 154.5zM317 748 q0 -47 20.5 -95.5t60.5 -102.5t98.5 -119.5t132.5 -145.5q25 20 42 62t17 85q0 57 -27.5 111.5t-71.5 110t-99.5 114.5t-110.5 131q-62 -45 -62 -151z" />
<glyph unicode="&#xa8;" horiz-adv-x="1118" d="M236 1339q0 47 31.5 79t78.5 32t78 -32t31 -79t-31 -77.5t-78 -30.5t-78.5 30.5t-31.5 77.5zM629 1339q0 47 31.5 79t78.5 32t78 -32t31 -79t-31 -77.5t-78 -30.5t-78.5 30.5t-31.5 77.5z" />
<glyph unicode="&#xa9;" horiz-adv-x="1548" d="M82 684q0 143 54 268t147.5 218.5t218.5 146.5t268 53t269 -53t219.5 -145.5t146.5 -216.5t53 -267t-54 -268t-147.5 -218t-218.5 -147.5t-268 -54.5q-145 0 -271 53t-218.5 145.5t-145.5 217.5t-53 268zM229 688q0 -113 42 -213t116 -175t172 -118t211 -43t212 43 t173 117t116 173t42 212t-42 212t-116 174t-173 118t-212 43t-211 -42t-172 -116t-116 -173t-42 -212zM442 672q0 74 19.5 142.5t62.5 120.5t113 84t170 32q80 0 158 -17v-246h-93q-6 35 -12 68t-10 68q-16 2 -32.5 3t-31.5 1q-53 0 -88.5 -18.5t-57.5 -51.5t-32 -77 t-10 -95q0 -117 47 -176t156 -59q82 0 164 28l8 -125q-49 -16 -99.5 -23t-97.5 -7q-92 0 -155.5 26.5t-103.5 72.5t-57.5 110.5t-17.5 138.5z" />
<glyph unicode="&#xaa;" horiz-adv-x="831" d="M98 864q0 117 106.5 182.5t299.5 67.5v39q0 20 -5 43t-19.5 41t-41 29.5t-69.5 11.5q-33 0 -61.5 -5t-51.5 -13l-8 -58q-4 -29 -8 -51h-97v205q35 14 100.5 28.5t141.5 14.5q80 0 133 -18.5t84 -50.5t44 -76t13 -93v-330q29 -4 65 -8t64 -8v-98q-55 -10 -131.5 -13.5 t-148.5 -1.5q0 25 3 54.5t7 58.5l-4 2q-10 -25 -30.5 -47t-49 -40.5t-62.5 -29t-71 -10.5q-104 0 -153.5 48t-49.5 126zM250 887q0 -35 23.5 -55.5t66.5 -20.5t73.5 20.5t51 48t30 58.5t9.5 53v19q-133 0 -193.5 -32t-60.5 -91z" />
<glyph unicode="&#xab;" horiz-adv-x="1042" d="M111 504l235 373l139 -78l-194 -293l192 -291l-143 -78zM506 504l254 368l135 -77l-209 -289l207 -285l-139 -80z" />
<glyph unicode="&#xac;" horiz-adv-x="1081" d="M76 463v151h903v-473h-162v322h-741z" />
<glyph unicode="&#xad;" horiz-adv-x="675" d="M96 440v148h484v-148h-484z" />
<glyph unicode="&#xae;" horiz-adv-x="1150" d="M123 1087q0 92 36 174t97 143.5t143 96.5t176 35t176.5 -35t143.5 -95t96 -142t35 -177q0 -92 -36 -174t-97.5 -142t-143 -96t-174.5 -36q-96 0 -178 35t-143 95t-96 142t-35 176zM248 1090q0 -68 25.5 -129.5t69.5 -107.5t104.5 -72.5t127.5 -26.5q68 0 128.5 26.5 t104.5 70.5t69.5 104.5t25.5 127.5q0 68 -25.5 129.5t-69.5 107.5t-104.5 72.5t-128.5 26.5t-128 -25.5t-104 -70.5t-69.5 -105t-25.5 -128zM387 856v55q12 8 27.5 12.5t27.5 6.5v319q-12 2 -27 7l-28 10v57h51q41 0 80 1t70 1q86 0 127 -32.5t41 -92.5q0 -51 -25.5 -85 t-71.5 -46q10 -16 19.5 -31.5t13.5 -25.5l37 -82q14 -2 26.5 -7t22.5 -10v-57h-129l-82 191h-30v-117q10 -2 23 -6t24 -11v-57h-197zM537 1120q2 0 15 -1t15 -1q49 0 68.5 22.5t19.5 47.5q0 59 -71 57q-2 2 -23.5 1t-23.5 -1v-125z" />
<glyph unicode="&#xaf;" horiz-adv-x="788" d="M162 1264v137h452v-137h-452z" />
<glyph unicode="&#xb0;" horiz-adv-x="770" d="M109 1247q0 61 23.5 110.5t62 83.5t89 51t101.5 17q70 0 120 -20.5t83 -56t49 -82.5t16 -99q0 -61 -23.5 -110t-62.5 -83t-90 -51.5t-104 -17.5q-123 0 -193.5 69.5t-70.5 188.5zM254 1249q0 -66 35 -102.5t90 -36.5q57 0 94 39t37 100q0 25 -6 49.5t-21.5 45t-40 34 t-61.5 13.5q-53 0 -90 -39.5t-37 -102.5z" />
<glyph unicode="&#xb1;" horiz-adv-x="1175" d="M94 559v154h406v407h176v-407h405v-154h-405v-412h-176v412h-406zM104 29h967v-156h-967v156z" />
<glyph unicode="&#xb2;" horiz-adv-x="987" d="M104 0v147l275 228q129 106 193.5 183t64.5 165t-53.5 143.5t-157.5 55.5q-41 0 -81 -8.5t-75 -22.5q-4 -41 -10 -84t-14 -86h-113v289q68 29 148.5 45t173.5 16q188 0 285.5 -90t97.5 -231q0 -115 -64.5 -210.5t-198.5 -201.5l-215 -178l-4 -2q37 2 94.5 4t127 3 t148.5 1h159v-166h-781z" />
<glyph unicode="&#xb3;" horiz-adv-x="946" d="M92 -381l19 166q80 -29 180 -29q156 0 250 72t94 205q0 76 -34 128t-95.5 80.5t-148.5 37t-193 -4.5v148q211 0 330.5 74.5t119.5 212.5q0 98 -57 153.5t-162 55.5q-35 0 -70.5 -8.5t-64.5 -18.5q-4 -41 -9 -84t-15 -86h-113v289q66 29 136.5 44t156.5 15 q104 0 178 -26.5t121 -71.5t69.5 -105.5t22.5 -130.5q0 -119 -71.5 -211t-184.5 -135v-2q131 -27 208 -117t77 -215q0 -102 -41 -187t-115 -144.5t-176.5 -92t-227.5 -32.5q-47 0 -95 5t-89 15z" />
<glyph unicode="&#xb4;" horiz-adv-x="796" d="M203 1280l291 227l92 -127l-310 -202z" />
<glyph unicode="&#xb5;" horiz-adv-x="1263" d="M178 -506v1524h184v-643q0 -127 61.5 -185.5t178.5 -58.5q70 0 126 31t94 84t58.5 125.5t20.5 156.5v490h184v-1018h-180q0 43 4 102.5t11 108.5l-2 2q-12 -37 -37 -77t-66 -73.5t-100.5 -56t-141.5 -22.5q-78 0 -134 25.5t-81 53.5l-2 -2q4 -29 5 -82t1 -139v-346h-184z " />
<glyph unicode="&#xb6;" horiz-adv-x="1173" d="M135 948q0 94 33 174t93.5 137.5t144 90t186.5 32.5v-876q-117 0 -203 36t-142.5 96t-84 140t-27.5 170zM596 -53h149v1435h312v-143h-146v-1436h-315v144z" />
<glyph unicode="&#xb7;" horiz-adv-x="479" d="M109 590q0 55 37.5 93t93.5 38q55 0 93 -38t38 -93t-38 -93t-93 -38t-93 38t-38 93z" />
<glyph unicode="&#xb8;" horiz-adv-x="819" d="M311 -420q98 72 115.5 151t-29.5 165h178q23 -49 29 -99.5t-12.5 -99.5t-65.5 -98.5t-131 -94.5z" />
<glyph unicode="&#xb9;" horiz-adv-x="749" d="M51 936l303 117h150v-914q43 -4 90 -10t94 -16v-113h-598v113q51 10 107.5 16t115.5 10v742l-231 -99z" />
<glyph unicode="&#xba;" horiz-adv-x="858" d="M98 1036q0 82 26 149.5t70 115t105 74t135 26.5q59 0 116.5 -15.5t101.5 -54.5t72 -104.5t28 -165.5q0 -84 -26 -152.5t-72 -117t-108.5 -75t-137.5 -26.5q-68 0 -125.5 18.5t-98.5 60.5t-63.5 107.5t-22.5 159.5zM256 1051q0 -43 8 -83t26.5 -73t50.5 -52.5t79 -19.5 q74 0 123 54.5t49 171.5q0 43 -8.5 82.5t-27.5 69.5t-51 48.5t-79 18.5q-31 0 -61.5 -12.5t-54 -39t-39 -67.5t-15.5 -98z" />
<glyph unicode="&#xbb;" horiz-adv-x="1042" d="M147 219l209 289l-206 285l139 79l250 -362l-256 -369zM559 213l193 295l-193 289l143 80l230 -367l-236 -373z" />
<glyph unicode="&#xbc;" horiz-adv-x="2723" d="M1637 152l569 903h238v-889h245v-166h-245v-260q47 -4 90 -10t82 -17v-106h-533v106q41 10 86 16.5t92 10.5v260h-594zM1817 164q43 0 108.5 1t131.5 1h122h84v708h-2zM725 -178l883 1726l148 -71l-883 -1727zM51 936l303 117h150v-914q43 -4 90 -10t94 -16v-113h-598 v113q51 10 107.5 16t115.5 10v742l-231 -99z" />
<glyph unicode="&#xbd;" horiz-adv-x="2594" d="M1712 0v147l275 228q129 106 193.5 183t64.5 165t-53.5 143.5t-157.5 55.5q-41 0 -81 -8.5t-75 -22.5q-4 -41 -10 -84t-14 -86h-113v289q68 29 148.5 45t173.5 16q188 0 285.5 -90t97.5 -231q0 -115 -64.5 -210.5t-198.5 -201.5l-215 -178l-4 -2q37 2 94.5 4t127 3 t148.5 1h159v-166h-781zM725 -178l883 1726l148 -71l-883 -1727zM51 936l303 117h150v-914q43 -4 90 -10t94 -16v-113h-598v113q51 10 107.5 16t115.5 10v742l-231 -99z" />
<glyph unicode="&#xbe;" horiz-adv-x="2920" d="M1833 152l569 903h238v-889h245v-166h-245v-260q47 -4 90 -10t82 -17v-106h-533v106q41 10 86 16.5t92 10.5v260h-594zM2013 164q43 0 108.5 1t131.5 1h122h84v708h-2zM921 -178l883 1726l148 -71l-883 -1727zM92 -381l19 166q80 -29 180 -29q156 0 250 72t94 205 q0 76 -34 128t-95.5 80.5t-148.5 37t-193 -4.5v148q211 0 330.5 74.5t119.5 212.5q0 98 -57 153.5t-162 55.5q-35 0 -70.5 -8.5t-64.5 -18.5q-4 -41 -9 -84t-15 -86h-113v289q66 29 136.5 44t156.5 15q104 0 178 -26.5t121 -71.5t69.5 -105.5t22.5 -130.5q0 -119 -71.5 -211 t-184.5 -135v-2q131 -27 208 -117t77 -215q0 -102 -41 -187t-115 -144.5t-176.5 -92t-227.5 -32.5q-47 0 -95 5t-89 15z" />
<glyph unicode="&#xbf;" horiz-adv-x="866" d="M121 -39q0 80 30.5 137.5t73.5 105.5t90 92t81 97t43.5 121t-21.5 162h180q35 -102 29 -177t-37 -133.5t-76 -104.5t-87 -90t-72.5 -89t-30.5 -100q0 -51 28.5 -94.5t80.5 -77t124 -54t158 -26.5l-23 -168q-133 8 -239.5 43t-180 88t-112.5 122.5t-39 145.5zM377 918 q0 51 36 85.5t89 34.5t88 -34.5t35 -85.5t-35 -86t-88 -35t-89 35t-36 86z" />
<glyph unicode="&#xc0;" horiz-adv-x="1415" d="M12 0v111q29 6 63 13t62 9l459 1249h221l461 -1249q29 -2 62.5 -9t62.5 -13v-111h-496v109q37 10 79 16t83 10l-80 221h-579l-80 -221q41 -4 83 -10t79 -16v-109h-480zM459 506h481l-178 481q-20 53 -34.5 103.5t-27.5 103.5h-4q-12 -51 -27.5 -103.5t-35.5 -105.5z M428 1691l94 129l291 -225l-76 -106z" />
<glyph unicode="&#xc1;" horiz-adv-x="1415" d="M12 0v111q29 6 63 13t62 9l459 1249h221l461 -1249q29 -2 62.5 -9t62.5 -13v-111h-496v109q37 10 79 16t83 10l-80 221h-579l-80 -221q41 -4 83 -10t79 -16v-109h-480zM459 506h481l-178 481q-20 53 -34.5 103.5t-27.5 103.5h-4q-12 -51 -27.5 -103.5t-35.5 -105.5z M582 1593l291 227l92 -127l-310 -202z" />
<glyph unicode="&#xc2;" horiz-adv-x="1415" d="M12 0v111q29 6 63 13t62 9l459 1249h221l461 -1249q29 -2 62.5 -9t62.5 -13v-111h-496v109q37 10 79 16t83 10l-80 221h-579l-80 -221q41 -4 83 -10t79 -16v-109h-480zM459 506h481l-178 481q-20 53 -34.5 103.5t-27.5 103.5h-4q-12 -51 -27.5 -103.5t-35.5 -105.5z M416 1605l278 191l289 -187l-74 -110l-217 139l-209 -139z" />
<glyph unicode="&#xc3;" horiz-adv-x="1415" d="M12 0v111q29 6 63 13t62 9l459 1249h221l461 -1249q29 -2 62.5 -9t62.5 -13v-111h-496v109q37 10 79 16t83 10l-80 221h-579l-80 -221q41 -4 83 -10t79 -16v-109h-480zM459 506h481l-178 481q-20 53 -34.5 103.5t-27.5 103.5h-4q-12 -51 -27.5 -103.5t-35.5 -105.5z M354 1683q37 37 88.5 60.5t108.5 23.5q51 0 89 -15.5t69.5 -32.5t64.5 -32.5t74 -15.5q43 0 78 18.5t63 46.5l43 -125q-31 -31 -83 -56t-111 -25q-55 0 -93 15t-70 32.5t-64.5 33t-75.5 15.5q-41 0 -75 -18.5t-63 -47.5z" />
<glyph unicode="&#xc4;" horiz-adv-x="1415" d="M12 0v111q29 6 63 13t62 9l459 1249h221l461 -1249q29 -2 62.5 -9t62.5 -13v-111h-496v109q37 10 79 16t83 10l-80 221h-579l-80 -221q41 -4 83 -10t79 -16v-109h-480zM459 506h481l-178 481q-20 53 -34.5 103.5t-27.5 103.5h-4q-12 -51 -27.5 -103.5t-35.5 -105.5z M398 1624q0 47 31.5 79t78.5 32t78 -32t31 -79t-31 -77.5t-78 -30.5t-78.5 30.5t-31.5 77.5zM791 1624q0 47 31.5 79t78.5 32t78 -32t31 -79t-31 -77.5t-78 -30.5t-78.5 30.5t-31.5 77.5z" />
<glyph unicode="&#xc5;" horiz-adv-x="1415" d="M12 0v111q29 6 63 13t62 9l459 1249h221l461 -1249q29 -2 62.5 -9t62.5 -13v-111h-496v109q37 10 79 16t83 10l-80 221h-579l-80 -221q41 -4 83 -10t79 -16v-109h-480zM459 506h481l-178 481q-20 53 -34.5 103.5t-27.5 103.5h-4q-12 -51 -27.5 -103.5t-35.5 -105.5z M473 1577q0 49 18.5 90t50 71t73.5 47.5t89 17.5q49 0 92 -17.5t74 -47.5t49.5 -71t18.5 -90q0 -47 -18.5 -87t-50.5 -70.5t-74 -48t-91 -17.5q-98 0 -164.5 62.5t-66.5 160.5zM592 1577q0 -47 32.5 -80.5t79.5 -33.5t81 33.5t34 80.5t-34 82t-81 35t-79.5 -35t-32.5 -82z " />
<glyph unicode="&#xc6;" horiz-adv-x="1701" d="M-63 0v111q27 6 60.5 13t61.5 9l611 1112q-96 6 -178 29v108h1054v-319h-131q-10 47 -16 92t-10 80h-365v-455h295q4 39 11 74t18 68h114v-420h-114q-23 66 -29 141h-295v-491h379q4 41 11 85t18 91h133v-328h-891v111q37 10 80 16t84 10v219h-465l-121 -221 q39 -4 79 -10t75 -16v-109h-469zM446 506h392v723h-9q-27 -57 -58.5 -124t-82.5 -161z" />
<glyph unicode="&#xc7;" horiz-adv-x="1210" d="M94 655q0 160 40 296t124 235.5t212 155t306 55.5q80 0 163 -11.5t161 -29.5v-336h-133q-10 51 -16.5 97t-10.5 87q-53 14 -103.5 19.5t-101.5 5.5q-113 0 -194.5 -42t-135 -115t-79 -172t-25.5 -214q0 -252 113.5 -393t365.5 -141q82 0 169 19t153 52l12 -172 q-84 -31 -180 -50t-201 -19q-317 0 -478 178t-161 495zM522 -420q98 72 115.5 151t-29.5 165h178q23 -49 29 -99.5t-12.5 -99.5t-65.5 -98.5t-131 -94.5z" />
<glyph unicode="&#xc8;" horiz-adv-x="1087" d="M57 0v109q82 23 179 28v1108q-96 6 -179 29v108h893v-319h-131q-10 47 -16 92t-10 80h-371v-455h295q6 39 12 74t16 68h115v-420h-115q-18 66 -28 141h-295v-491h373q4 41 11 85t17 91h131v-328h-897zM281 1691l94 129l291 -225l-76 -106z" />
<glyph unicode="&#xc9;" horiz-adv-x="1087" d="M57 0v109q82 23 179 28v1108q-96 6 -179 29v108h893v-319h-131q-10 47 -16 92t-10 80h-371v-455h295q6 39 12 74t16 68h115v-420h-115q-18 66 -28 141h-295v-491h373q4 41 11 85t17 91h131v-328h-897zM451 1593l291 227l92 -127l-310 -202z" />
<glyph unicode="&#xca;" horiz-adv-x="1087" d="M57 0v109q82 23 179 28v1108q-96 6 -179 29v108h893v-319h-131q-10 47 -16 92t-10 80h-371v-455h295q6 39 12 74t16 68h115v-420h-115q-18 66 -28 141h-295v-491h373q4 41 11 85t17 91h131v-328h-897zM264 1605l278 191l289 -187l-74 -110l-217 139l-209 -139z" />
<glyph unicode="&#xcb;" horiz-adv-x="1087" d="M57 0v109q82 23 179 28v1108q-96 6 -179 29v108h893v-319h-131q-10 47 -16 92t-10 80h-371v-455h295q6 39 12 74t16 68h115v-420h-115q-18 66 -28 141h-295v-491h373q4 41 11 85t17 91h131v-328h-897zM238 1624q0 47 31.5 79t78.5 32t78 -32t31 -79t-31 -77.5t-78 -30.5 t-78.5 30.5t-31.5 77.5zM631 1624q0 47 31.5 79t78.5 32t78 -32t31 -79t-31 -77.5t-78 -30.5t-78.5 30.5t-31.5 77.5z" />
<glyph unicode="&#xcc;" horiz-adv-x="657" d="M51 1692l94 129l291 -228l-76 -104zM53 0v109q82 23 178 28v1108q-96 6 -178 29v108h545v-108q-82 -23 -178 -29v-1108q96 -6 178 -28v-109h-545z" />
<glyph unicode="&#xcd;" horiz-adv-x="657" d="M53 0v109q82 23 178 28v1108q-96 6 -178 29v108h545v-108q-82 -23 -178 -29v-1108q96 -6 178 -28v-109h-545zM199 1593l290 228l93 -129l-310 -203z" />
<glyph unicode="&#xce;" horiz-adv-x="657" d="M43 1606l281 190l288 -186l-73 -111l-217 139l-209 -139zM53 0v109q82 23 178 28v1108q-96 6 -178 29v108h545v-108q-82 -23 -178 -29v-1108q96 -6 178 -28v-109h-545z" />
<glyph unicode="&#xcf;" horiz-adv-x="657" d="M10 1624q0 47 32 79t79 32t78.5 -32t31.5 -79t-31.5 -79t-78.5 -32t-79 32t-32 79zM53 0v109q82 23 178 28v1108q-96 6 -178 29v108h545v-108q-82 -23 -178 -29v-1108q96 -6 178 -28v-109h-545zM403 1624q0 47 32 79t79 32t79 -32t32 -79t-32 -79t-79 -32t-79 32t-32 79z " />
<glyph unicode="&#xd1;" horiz-adv-x="1540" d="M57 0v109q41 10 86 18t93 12v1106q-96 6 -179 29v108h426l529 -847q45 -72 83 -142.5t79 -144.5q-6 86 -8.5 197.5t-4.5 238.5t-2 269v290q-41 4 -82 11.5t-78 17.5v110h484v-110q-68 -20 -142 -29v-1243h-245l-535 856q-47 76 -85 147.5t-70 139.5q10 -180 11 -442.5 t1 -561.5q41 -4 84 -11t80 -17v-111h-525zM448 1683q37 37 88.5 60.5t108.5 23.5q51 0 89 -15.5t69.5 -32.5t64.5 -32.5t74 -15.5q43 0 78 18.5t63 46.5l43 -125q-31 -31 -83 -56t-111 -25q-55 0 -93 15t-70 32.5t-64.5 33t-75.5 15.5q-41 0 -75 -18.5t-63 -47.5z" />
<glyph unicode="&#xd2;" horiz-adv-x="1443" d="M86 676q0 172 51 307t140.5 228.5t209 142.5t254.5 49q139 0 253 -45t195 -133t125 -218t44 -300q0 -172 -52.5 -307.5t-141.5 -228.5t-207.5 -142t-254.5 -49q-156 0 -271.5 50t-192 141t-114.5 219t-38 286zM287 702q0 -123 26.5 -225t79.5 -176t134 -114t192 -40 q84 0 163 34t140 101.5t98 168t37 233.5q0 268 -113.5 410.5t-322.5 142.5q-86 0 -165 -35t-138.5 -102.5t-95 -167t-35.5 -230.5zM478 1691l94 129l291 -225l-76 -106z" />
<glyph unicode="&#xd3;" horiz-adv-x="1443" d="M86 676q0 172 51 307t140.5 228.5t209 142.5t254.5 49q139 0 253 -45t195 -133t125 -218t44 -300q0 -172 -52.5 -307.5t-141.5 -228.5t-207.5 -142t-254.5 -49q-156 0 -271.5 50t-192 141t-114.5 219t-38 286zM287 702q0 -123 26.5 -225t79.5 -176t134 -114t192 -40 q84 0 163 34t140 101.5t98 168t37 233.5q0 268 -113.5 410.5t-322.5 142.5q-86 0 -165 -35t-138.5 -102.5t-95 -167t-35.5 -230.5zM613 1593l291 227l92 -127l-310 -202z" />
<glyph unicode="&#xd4;" horiz-adv-x="1443" d="M86 676q0 172 51 307t140.5 228.5t209 142.5t254.5 49q139 0 253 -45t195 -133t125 -218t44 -300q0 -172 -52.5 -307.5t-141.5 -228.5t-207.5 -142t-254.5 -49q-156 0 -271.5 50t-192 141t-114.5 219t-38 286zM287 702q0 -123 26.5 -225t79.5 -176t134 -114t192 -40 q84 0 163 34t140 101.5t98 168t37 233.5q0 268 -113.5 410.5t-322.5 142.5q-86 0 -165 -35t-138.5 -102.5t-95 -167t-35.5 -230.5zM453 1605l278 191l289 -187l-74 -110l-217 139l-209 -139z" />
<glyph unicode="&#xd5;" horiz-adv-x="1443" d="M86 676q0 172 51 307t140.5 228.5t209 142.5t254.5 49q139 0 253 -45t195 -133t125 -218t44 -300q0 -172 -52.5 -307.5t-141.5 -228.5t-207.5 -142t-254.5 -49q-156 0 -271.5 50t-192 141t-114.5 219t-38 286zM287 702q0 -123 26.5 -225t79.5 -176t134 -114t192 -40 q84 0 163 34t140 101.5t98 168t37 233.5q0 268 -113.5 410.5t-322.5 142.5q-86 0 -165 -35t-138.5 -102.5t-95 -167t-35.5 -230.5zM374 1685q37 37 88.5 60.5t108.5 23.5q51 0 89 -15.5t69.5 -32.5t64.5 -32.5t74 -15.5q43 0 78 18.5t63 46.5l43 -125q-31 -31 -83 -56 t-111 -25q-55 0 -93 15t-70 32.5t-64.5 33t-75.5 15.5q-41 0 -75 -18.5t-63 -47.5z" />
<glyph unicode="&#xd6;" horiz-adv-x="1443" d="M86 676q0 172 51 307t140.5 228.5t209 142.5t254.5 49q139 0 253 -45t195 -133t125 -218t44 -300q0 -172 -52.5 -307.5t-141.5 -228.5t-207.5 -142t-254.5 -49q-156 0 -271.5 50t-192 141t-114.5 219t-38 286zM287 702q0 -123 26.5 -225t79.5 -176t134 -114t192 -40 q84 0 163 34t140 101.5t98 168t37 233.5q0 268 -113.5 410.5t-322.5 142.5q-86 0 -165 -35t-138.5 -102.5t-95 -167t-35.5 -230.5zM418 1624q0 47 31.5 79t78.5 32t78 -32t31 -79t-31 -77.5t-78 -30.5t-78.5 30.5t-31.5 77.5zM811 1624q0 47 31.5 79t78.5 32t78 -32t31 -79 t-31 -77.5t-78 -30.5t-78.5 30.5t-31.5 77.5z" />
<glyph unicode="&#xd8;" horiz-adv-x="1443" d="M82 680q0 172 51 307t139 227.5t207 140.5t254 48q76 0 148 -17l71 199l142 -47l-72 -192q156 -72 243 -233t87 -415q0 -172 -50.5 -305t-139.5 -225t-208.5 -140t-259.5 -48q-90 0 -159 18l-78 -209l-140 45l76 209q-162 82 -236.5 249t-74.5 388zM276 696 q0 -160 41 -281.5t140 -189.5l366 998q-33 6 -65.5 9t-73.5 1q-82 -4 -155.5 -41t-130 -104.5t-89.5 -166t-33 -225.5zM590 160q35 -10 68.5 -13.5t66.5 -3.5q92 2 171 38t137.5 103.5t91 167t32.5 228.5q0 170 -49 297t-150 188z" />
<glyph unicode="&#xd9;" horiz-adv-x="1464" d="M57 1272v110h492v-110q-37 -10 -80 -16.5t-84 -10.5v-766q0 -72 14.5 -134t53.5 -109.5t105.5 -74t170.5 -26.5q180 0 267 85t87 294v731q-41 4 -83 10.5t-80 16.5v110h489v-110q-35 -10 -69.5 -16.5t-71.5 -10.5v-719q0 -274 -138.5 -410t-412.5 -136 q-162 0 -263.5 40.5t-157.5 109.5t-76.5 156t-20.5 179v780q-37 4 -73 10.5t-69 16.5zM455 1691l94 129l291 -225l-76 -106z" />
<glyph unicode="&#xda;" horiz-adv-x="1464" d="M57 1272v110h492v-110q-37 -10 -80 -16.5t-84 -10.5v-766q0 -72 14.5 -134t53.5 -109.5t105.5 -74t170.5 -26.5q180 0 267 85t87 294v731q-41 4 -83 10.5t-80 16.5v110h489v-110q-35 -10 -69.5 -16.5t-71.5 -10.5v-719q0 -274 -138.5 -410t-412.5 -136 q-162 0 -263.5 40.5t-157.5 109.5t-76.5 156t-20.5 179v780q-37 4 -73 10.5t-69 16.5zM631 1593l291 227l92 -127l-310 -202z" />
<glyph unicode="&#xdb;" horiz-adv-x="1464" d="M57 1272v110h492v-110q-37 -10 -80 -16.5t-84 -10.5v-766q0 -72 14.5 -134t53.5 -109.5t105.5 -74t170.5 -26.5q180 0 267 85t87 294v731q-41 4 -83 10.5t-80 16.5v110h489v-110q-35 -10 -69.5 -16.5t-71.5 -10.5v-719q0 -274 -138.5 -410t-412.5 -136 q-162 0 -263.5 40.5t-157.5 109.5t-76.5 156t-20.5 179v780q-37 4 -73 10.5t-69 16.5zM449 1605l278 191l289 -187l-74 -110l-217 139l-209 -139z" />
<glyph unicode="&#xdc;" horiz-adv-x="1464" d="M57 1272v110h492v-110q-37 -10 -80 -16.5t-84 -10.5v-766q0 -72 14.5 -134t53.5 -109.5t105.5 -74t170.5 -26.5q180 0 267 85t87 294v731q-41 4 -83 10.5t-80 16.5v110h489v-110q-35 -10 -69.5 -16.5t-71.5 -10.5v-719q0 -274 -138.5 -410t-412.5 -136 q-162 0 -263.5 40.5t-157.5 109.5t-76.5 156t-20.5 179v780q-37 4 -73 10.5t-69 16.5zM426 1624q0 47 31.5 79t78.5 32t78 -32t31 -79t-31 -77.5t-78 -30.5t-78.5 30.5t-31.5 77.5zM819 1624q0 47 31.5 79t78.5 32t78 -32t31 -79t-31 -77.5t-78 -30.5t-78.5 30.5t-31.5 77.5 z" />
<glyph unicode="&#xdd;" horiz-adv-x="1218" d="M535 1628l291 227l92 -127l-310 -202zM12 1272v110h486v-110q-70 -18 -152 -25l166 -362q27 -55 51.5 -110.5t46.5 -110.5h4q23 59 51.5 118.5t55.5 116.5l164 348q-41 4 -79 9.5t-73 15.5v110h471v-110q-25 -8 -59.5 -14.5t-63.5 -8.5l-383 -760v-352q96 -6 179 -28 v-109h-543v109q82 23 178 28v350l-375 762q-29 2 -63.5 8.5t-61.5 14.5z" />
<glyph unicode="&#xdf;" horiz-adv-x="1335" d="M55 895v109q39 4 87 8t96 6q2 229 120.5 360t358.5 131q94 0 166.5 -22.5t122 -60t75 -90t25.5 -111.5q0 -68 -20.5 -112t-50 -75.5t-64.5 -54t-64.5 -46.5t-50 -53.5t-20.5 -74.5q0 -51 32.5 -86t80.5 -63.5t105.5 -56.5t105.5 -65.5t81 -91t33 -133.5q0 -68 -24.5 -127 t-74 -103t-124 -70.5t-174.5 -26.5q-53 0 -108.5 5t-102.5 13v289h116q8 -41 13.5 -81t9.5 -75q37 -10 86 -10q109 0 151.5 50t42.5 114q0 53 -32.5 89t-80.5 63.5t-105.5 53t-105.5 62.5t-81 90t-33 135q0 57 19.5 98.5t50.5 72t64.5 55t64.5 52.5t50 60.5t19 79.5 q0 76 -59 118t-154 42q-135 0 -207.5 -84t-72.5 -277v-864q39 -4 80 -11t67 -17v-109h-510v109q82 23 179 28v737q-37 6 -87.5 11.5t-95.5 9.5z" />
<glyph unicode="&#xe0;" horiz-adv-x="1105" d="M94 233q0 168 162 264.5t451 98.5v78q0 109 -46.5 164t-171.5 55q-47 0 -96 -6t-92 -19q-4 -39 -10 -81t-15 -85h-112v281q72 27 160 41t188 14q111 0 183.5 -24.5t116.5 -69.5t61.5 -107.5t17.5 -138.5v-555q37 -6 84 -11t88 -9v-109q-37 -4 -80 -8t-89 -6t-91 -2t-86 2 q0 53 1 106.5t9 96.5h-4q-37 -94 -128 -157.5t-218 -63.5t-205 64t-78 187zM274 266q0 -66 42 -103.5t114 -37.5q61 0 112.5 27.5t88.5 73.5t56.5 104.5t19.5 118.5v18q-127 0 -210 -17.5t-132.5 -45t-70 -64.5t-20.5 -74zM252 1378l94 129l291 -225l-76 -106z" />
<glyph unicode="&#xe1;" horiz-adv-x="1105" d="M94 233q0 168 162 264.5t451 98.5v78q0 109 -46.5 164t-171.5 55q-47 0 -96 -6t-92 -19q-4 -39 -10 -81t-15 -85h-112v281q72 27 160 41t188 14q111 0 183.5 -24.5t116.5 -69.5t61.5 -107.5t17.5 -138.5v-555q37 -6 84 -11t88 -9v-109q-37 -4 -80 -8t-89 -6t-91 -2t-86 2 q0 53 1 106.5t9 96.5h-4q-37 -94 -128 -157.5t-218 -63.5t-205 64t-78 187zM274 266q0 -66 42 -103.5t114 -37.5q61 0 112.5 27.5t88.5 73.5t56.5 104.5t19.5 118.5v18q-127 0 -210 -17.5t-132.5 -45t-70 -64.5t-20.5 -74zM398 1280l291 227l92 -127l-310 -202z" />
<glyph unicode="&#xe2;" horiz-adv-x="1105" d="M94 233q0 168 162 264.5t451 98.5v78q0 109 -46.5 164t-171.5 55q-47 0 -96 -6t-92 -19q-4 -39 -10 -81t-15 -85h-112v281q72 27 160 41t188 14q111 0 183.5 -24.5t116.5 -69.5t61.5 -107.5t17.5 -138.5v-555q37 -6 84 -11t88 -9v-109q-37 -4 -80 -8t-89 -6t-91 -2t-86 2 q0 53 1 106.5t9 96.5h-4q-37 -94 -128 -157.5t-218 -63.5t-205 64t-78 187zM274 266q0 -66 42 -103.5t114 -37.5q61 0 112.5 27.5t88.5 73.5t56.5 104.5t19.5 118.5v18q-127 0 -210 -17.5t-132.5 -45t-70 -64.5t-20.5 -74zM242 1292l278 191l289 -187l-74 -110l-217 139 l-209 -139z" />
<glyph unicode="&#xe3;" horiz-adv-x="1105" d="M94 233q0 168 162 264.5t451 98.5v78q0 109 -46.5 164t-171.5 55q-47 0 -96 -6t-92 -19q-4 -39 -10 -81t-15 -85h-112v281q72 27 160 41t188 14q111 0 183.5 -24.5t116.5 -69.5t61.5 -107.5t17.5 -138.5v-555q37 -6 84 -11t88 -9v-109q-37 -4 -80 -8t-89 -6t-91 -2t-86 2 q0 53 1 106.5t9 96.5h-4q-37 -94 -128 -157.5t-218 -63.5t-205 64t-78 187zM274 266q0 -66 42 -103.5t114 -37.5q61 0 112.5 27.5t88.5 73.5t56.5 104.5t19.5 118.5v18q-127 0 -210 -17.5t-132.5 -45t-70 -64.5t-20.5 -74zM182 1370q37 37 88.5 60.5t108.5 23.5 q51 0 89 -15.5t69.5 -32.5t64.5 -32.5t74 -15.5q43 0 78 18.5t63 46.5l43 -125q-31 -31 -83 -56t-111 -25q-55 0 -93 15t-70 32.5t-64.5 33t-75.5 15.5q-41 0 -75 -18.5t-63 -47.5z" />
<glyph unicode="&#xe4;" horiz-adv-x="1105" d="M94 233q0 168 162 264.5t451 98.5v78q0 109 -46.5 164t-171.5 55q-47 0 -96 -6t-92 -19q-4 -39 -10 -81t-15 -85h-112v281q72 27 160 41t188 14q111 0 183.5 -24.5t116.5 -69.5t61.5 -107.5t17.5 -138.5v-555q37 -6 84 -11t88 -9v-109q-37 -4 -80 -8t-89 -6t-91 -2t-86 2 q0 53 1 106.5t9 96.5h-4q-37 -94 -128 -157.5t-218 -63.5t-205 64t-78 187zM274 266q0 -66 42 -103.5t114 -37.5q61 0 112.5 27.5t88.5 73.5t56.5 104.5t19.5 118.5v18q-127 0 -210 -17.5t-132.5 -45t-70 -64.5t-20.5 -74zM220 1339q0 47 31.5 79t78.5 32t78 -32t31 -79 t-31 -77.5t-78 -30.5t-78.5 30.5t-31.5 77.5zM613 1339q0 47 31.5 79t78.5 32t78 -32t31 -79t-31 -77.5t-78 -30.5t-78.5 30.5t-31.5 77.5z" />
<glyph unicode="&#xe5;" horiz-adv-x="1105" d="M94 233q0 168 162 264.5t451 98.5v78q0 109 -46.5 164t-171.5 55q-47 0 -96 -6t-92 -19q-4 -39 -10 -81t-15 -85h-112v281q72 27 160 41t188 14q111 0 183.5 -24.5t116.5 -69.5t61.5 -107.5t17.5 -138.5v-555q37 -6 84 -11t88 -9v-109q-37 -4 -80 -8t-89 -6t-91 -2t-86 2 q0 53 1 106.5t9 96.5h-4q-37 -94 -128 -157.5t-218 -63.5t-205 64t-78 187zM274 266q0 -66 42 -103.5t114 -37.5q61 0 112.5 27.5t88.5 73.5t56.5 104.5t19.5 118.5v18q-127 0 -210 -17.5t-132.5 -45t-70 -64.5t-20.5 -74zM291 1356q0 49 18.5 90t50 71t73.5 47.5t89 17.5 q49 0 92 -17.5t74 -47.5t49.5 -71t18.5 -90q0 -47 -18.5 -87t-50.5 -70.5t-74 -48t-91 -17.5q-98 0 -164.5 62.5t-66.5 160.5zM410 1356q0 -47 32.5 -80.5t79.5 -33.5t81 33.5t34 80.5t-34 82t-81 35t-79.5 -35t-32.5 -82z" />
<glyph unicode="&#xe6;" horiz-adv-x="1652" d="M94 233q0 168 162 264.5t451 98.5v78q0 104 -47.5 161.5t-170.5 57.5q-47 0 -96 -6t-92 -19q-4 -39 -10 -81t-15 -85h-112v281q72 27 160 41t190 14q109 0 190.5 -36.5t124.5 -120.5h2q45 66 128 110.5t194 44.5q106 0 183 -33.5t126 -92t73 -136.5t24 -166q0 -37 -7 -88 h-665q-6 -205 75.5 -297t243.5 -92q78 0 158 17.5t141 46.5l17 -150q-152 -63 -344 -63q-172 0 -274.5 67.5t-141.5 165.5l-2 -2q-23 -43 -57.5 -85t-83 -73.5t-109.5 -52t-135 -20.5q-127 0 -204 64t-77 187zM274 266q0 -63 42 -102t114 -39q61 0 112.5 27.5t88.5 73.5 t56.5 104.5t19.5 118.5v18q-127 0 -210 -17.5t-132.5 -45t-70 -64.5t-20.5 -74zM893 651h477q4 113 -56.5 181.5t-168.5 68.5q-100 0 -168 -68.5t-84 -181.5z" />
<glyph unicode="&#xe7;" horiz-adv-x="913" d="M84 475q0 123 31.5 225.5t95 176t160 114.5t225.5 41q59 0 124.5 -9t119.5 -26v-297h-115q-10 45 -16.5 87t-10.5 79q-27 10 -59.5 14.5t-67.5 4.5q-143 0 -219 -102.5t-76 -276.5q0 -78 14.5 -144.5t49.5 -114.5t94.5 -76t149.5 -28q66 0 131 14.5t119 41.5l12 -160 q-55 -20 -132 -36.5t-169 -16.5q-94 0 -178 23.5t-146.5 80.5t-99.5 150.5t-37 234.5zM340 -420q98 72 115.5 151t-29.5 165h178q23 -49 29 -99.5t-12.5 -99.5t-65.5 -98.5t-131 -94.5z" />
<glyph unicode="&#xe8;" horiz-adv-x="1040" d="M84 504q0 115 30.5 212t89 168.5t142.5 111.5t193 40q106 0 184 -33.5t127 -92t72.5 -136.5t23.5 -166q0 -37 -6 -88h-666v-28q0 -183 76 -269q82 -92 246 -92q78 0 156.5 17.5t140.5 46.5l16 -150q-152 -63 -344 -63q-236 0 -358.5 126t-122.5 396zM283 651h475v14 q0 103 -58 168q-61 69 -170 68q-100 0 -165.5 -68.5t-81.5 -181.5zM275 1378l94 129l291 -225l-76 -106z" />
<glyph unicode="&#xe9;" horiz-adv-x="1040" d="M84 504q0 115 30.5 212t89 168.5t142.5 111.5t193 40q106 0 184 -33.5t127 -92t72.5 -136.5t23.5 -166q0 -37 -6 -88h-666v-28q0 -183 76 -269q82 -92 246 -92q78 0 156.5 17.5t140.5 46.5l16 -150q-152 -63 -344 -63q-236 0 -358.5 126t-122.5 396zM283 651h475v14 q0 103 -58 168q-61 69 -170 68q-100 0 -165.5 -68.5t-81.5 -181.5zM408 1280l291 227l92 -127l-310 -202z" />
<glyph unicode="&#xea;" horiz-adv-x="1040" d="M84 504q0 115 30.5 212t89 168.5t142.5 111.5t193 40q106 0 184 -33.5t127 -92t72.5 -136.5t23.5 -166q0 -37 -6 -88h-666v-28q0 -183 76 -269q82 -92 246 -92q78 0 156.5 17.5t140.5 46.5l16 -150q-152 -63 -344 -63q-236 0 -358.5 126t-122.5 396zM283 651h475v14 q0 103 -58 168q-61 69 -170 68q-100 0 -165.5 -68.5t-81.5 -181.5zM252 1292l278 191l289 -187l-74 -110l-217 139l-209 -139z" />
<glyph unicode="&#xeb;" horiz-adv-x="1040" d="M84 504q0 115 30.5 212t89 168.5t142.5 111.5t193 40q106 0 184 -33.5t127 -92t72.5 -136.5t23.5 -166q0 -37 -6 -88h-666v-28q0 -183 76 -269q82 -92 246 -92q78 0 156.5 17.5t140.5 46.5l16 -150q-152 -63 -344 -63q-236 0 -358.5 126t-122.5 396zM283 651h475v14 q0 103 -58 168q-61 69 -170 68q-100 0 -165.5 -68.5t-81.5 -181.5zM234 1339q0 47 31.5 79t78.5 32t78 -32t31 -79t-31 -77.5t-78 -30.5t-78.5 30.5t-31.5 77.5zM627 1339q0 47 31.5 79t78.5 32t78 -32t31 -79t-31 -77.5t-78 -30.5t-78.5 30.5t-31.5 77.5z" />
<glyph unicode="&#xec;" horiz-adv-x="636" d="M33 1378l94 129l291 -225l-76 -106zM53 0v109q82 23 178 28v737q-37 6 -85 11.5t-93 9.5v109q78 10 176.5 14t186.5 0v-881q92 -6 172 -28v-109h-535z" />
<glyph unicode="&#xed;" horiz-adv-x="636" d="M53 0v109q82 23 178 28v737q-37 6 -85 11.5t-93 9.5v109q78 10 176.5 14t186.5 0v-881q92 -6 172 -28v-109h-535zM182 1280l291 227l92 -127l-309 -202z" />
<glyph unicode="&#xee;" horiz-adv-x="636" d="M37 1292l280 191l287 -187l-74 -110l-217 139l-209 -139zM53 0v109q82 23 178 28v737q-37 6 -85 11.5t-93 9.5v109q78 10 176.5 14t186.5 0v-881q92 -6 172 -28v-109h-535z" />
<glyph unicode="&#xef;" horiz-adv-x="636" d="M6 1339q0 47 32 79t79 32t77.5 -32t30.5 -79t-30.5 -77.5t-77.5 -30.5t-79 30.5t-32 77.5zM53 0v109q82 23 178 28v737q-37 6 -85 11.5t-93 9.5v109q78 10 176.5 14t186.5 0v-881q92 -6 172 -28v-109h-535zM399 1339q0 47 32 79t79 32q45 0 76.5 -32t31.5 -79 t-31.5 -77.5t-76.5 -30.5q-47 0 -79 30.5t-32 77.5z" />
<glyph unicode="&#xf1;" horiz-adv-x="1280" d="M59 0v109q82 23 179 28v737q-37 6 -85.5 11.5t-93.5 9.5v109q78 10 174 14q48 2 94 2t89 -2q0 -45 -3 -106.5t-12 -106.5l2 -2q45 106 136.5 170.5t224.5 64.5q86 0 145.5 -25.5t94 -69.5t50 -103.5t15.5 -126.5v-576q92 -6 172 -28v-109h-356v657q0 109 -36 168.5 t-136 59.5q-63 0 -116.5 -30t-92.5 -83t-60.5 -126t-21.5 -157v-352q41 -4 84 -10t80 -16v-111h-527zM299 1370q37 37 88.5 60.5t108.5 23.5q51 0 89 -15.5t69.5 -32.5t64.5 -32.5t74 -15.5q43 0 78 18.5t63 46.5l43 -125q-31 -31 -83 -56t-111 -25q-55 0 -93 15t-70 32.5 t-64.5 33t-75.5 15.5q-41 0 -75 -18.5t-63 -47.5z" />
<glyph unicode="&#xf2;" d="M80 500q0 113 33.5 210t98 169.5t157 114.5t206.5 42q98 0 182.5 -27.5t146 -89t96 -158.5t34.5 -235q0 -115 -35.5 -214t-100 -172.5t-157 -115.5t-204.5 -42q-104 0 -188.5 30.5t-144 94t-92 161t-32.5 232.5zM272 518q0 -186 73 -283.5t214 -97.5q57 0 108.5 22.5 t90.5 69.5t61.5 118t22.5 169q0 174 -71 270.5t-212 96.5q-55 0 -107.5 -21.5t-92.5 -66.5t-63.5 -114t-23.5 -163zM326 1378l94 129l291 -225l-76 -106z" />
<glyph unicode="&#xf3;" d="M80 500q0 113 33.5 210t98 169.5t157 114.5t206.5 42q98 0 182.5 -27.5t146 -89t96 -158.5t34.5 -235q0 -115 -35.5 -214t-100 -172.5t-157 -115.5t-204.5 -42q-104 0 -188.5 30.5t-144 94t-92 161t-32.5 232.5zM272 518q0 -186 73 -283.5t214 -97.5q57 0 108.5 22.5 t90.5 69.5t61.5 118t22.5 169q0 174 -71 270.5t-212 96.5q-55 0 -107.5 -21.5t-92.5 -66.5t-63.5 -114t-23.5 -163zM436 1280l291 227l92 -127l-310 -202z" />
<glyph unicode="&#xf4;" d="M80 500q0 113 33.5 210t98 169.5t157 114.5t206.5 42q98 0 182.5 -27.5t146 -89t96 -158.5t34.5 -235q0 -115 -35.5 -214t-100 -172.5t-157 -115.5t-204.5 -42q-104 0 -188.5 30.5t-144 94t-92 161t-32.5 232.5zM272 518q0 -186 73 -283.5t214 -97.5q57 0 108.5 22.5 t90.5 69.5t61.5 118t22.5 169q0 174 -71 270.5t-212 96.5q-55 0 -107.5 -21.5t-92.5 -66.5t-63.5 -114t-23.5 -163zM279 1292l278 191l289 -187l-74 -110l-217 139l-209 -139z" />
<glyph unicode="&#xf5;" d="M80 500q0 113 33.5 210t98 169.5t157 114.5t206.5 42q98 0 182.5 -27.5t146 -89t96 -158.5t34.5 -235q0 -115 -35.5 -214t-100 -172.5t-157 -115.5t-204.5 -42q-104 0 -188.5 30.5t-144 94t-92 161t-32.5 232.5zM272 518q0 -186 73 -283.5t214 -97.5q57 0 108.5 22.5 t90.5 69.5t61.5 118t22.5 169q0 174 -71 270.5t-212 96.5q-55 0 -107.5 -21.5t-92.5 -66.5t-63.5 -114t-23.5 -163zM223 1370q37 37 88.5 60.5t108.5 23.5q51 0 89 -15.5t69.5 -32.5t64.5 -32.5t74 -15.5q43 0 78 18.5t63 46.5l43 -125q-31 -31 -83 -56t-111 -25 q-55 0 -93 15t-70 32.5t-64.5 33t-75.5 15.5q-41 0 -75 -18.5t-63 -47.5z" />
<glyph unicode="&#xf6;" d="M80 500q0 113 33.5 210t98 169.5t157 114.5t206.5 42q98 0 182.5 -27.5t146 -89t96 -158.5t34.5 -235q0 -115 -35.5 -214t-100 -172.5t-157 -115.5t-204.5 -42q-104 0 -188.5 30.5t-144 94t-92 161t-32.5 232.5zM272 518q0 -186 73 -283.5t214 -97.5q57 0 108.5 22.5 t90.5 69.5t61.5 118t22.5 169q0 174 -71 270.5t-212 96.5q-55 0 -107.5 -21.5t-92.5 -66.5t-63.5 -114t-23.5 -163zM252 1339q0 47 31.5 79t78.5 32t78 -32t31 -79t-31 -77.5t-78 -30.5t-78.5 30.5t-31.5 77.5zM645 1339q0 47 31.5 79t78.5 32t78 -32t31 -79t-31 -77.5 t-78 -30.5t-78.5 30.5t-31.5 77.5z" />
<glyph unicode="&#xf7;" horiz-adv-x="1202" d="M94 451v155h1014v-155h-1014zM477 115q0 51 36 87t89 36q51 0 87 -36t36 -87q0 -53 -36 -89t-87 -36q-53 0 -89 36t-36 89zM477 940q0 51 36 87t89 36q51 0 87 -36t36 -87q0 -53 -36 -89t-87 -36q-53 0 -89 36t-36 89z" />
<glyph unicode="&#xf8;" d="M74 502q0 113 33.5 211t97 170.5t155 113.5t205.5 41q25 0 50.5 -2t48.5 -6l73 191l121 -39l-74 -189q51 -25 94.5 -63.5t75 -96t50 -133t18.5 -174.5q0 -117 -35 -216t-99.5 -173t-154.5 -115.5t-203 -41.5q-72 0 -129 18l-79 -211l-121 39l84 213q-111 63 -161 185 t-50 278zM250 514q0 -98 25.5 -177t76.5 -126l256 672q-37 6 -78 6q-51 -2 -101 -23.5t-90 -66.5t-64.5 -115t-24.5 -170zM459 147q49 -20 108 -16q55 2 105.5 25.5t88.5 70.5t61.5 120t23.5 171q0 229 -125 316z" />
<glyph unicode="&#xf9;" horiz-adv-x="1259" d="M43 895v109q72 10 168 14q48 2 95 2t93 -2v-658q0 -109 36 -168t136 -59q63 0 116.5 30t92.5 83t60.5 125.5t21.5 156.5v346q-35 6 -79 10.5t-85 8.5v111q74 10 167 14q47 2 91.5 2t87.5 -2v-875q37 -6 84.5 -11t90.5 -9v-109q-74 -10 -170 -14q-48 -2 -93.5 -2t-87.5 2 q0 47 3 106.5t12 106.5l-4 2q-43 -106 -135.5 -170.5t-223.5 -64.5q-88 0 -146.5 25.5t-94 69.5t-50 103.5t-14.5 126.5v569q-37 6 -84 11.5t-88 9.5zM373 1378l94 129l291 -225l-76 -106z" />
<glyph unicode="&#xfa;" horiz-adv-x="1259" d="M43 895v109q72 10 168 14q48 2 95 2t93 -2v-658q0 -109 36 -168t136 -59q63 0 116.5 30t92.5 83t60.5 125.5t21.5 156.5v346q-35 6 -79 10.5t-85 8.5v111q74 10 167 14q47 2 91.5 2t87.5 -2v-875q37 -6 84.5 -11t90.5 -9v-109q-74 -10 -170 -14q-48 -2 -93.5 -2t-87.5 2 q0 47 3 106.5t12 106.5l-4 2q-43 -106 -135.5 -170.5t-223.5 -64.5q-88 0 -146.5 25.5t-94 69.5t-50 103.5t-14.5 126.5v569q-37 6 -84 11.5t-88 9.5zM510 1280l291 227l92 -127l-310 -202z" />
<glyph unicode="&#xfb;" horiz-adv-x="1259" d="M43 895v109q72 10 168 14q48 2 95 2t93 -2v-658q0 -109 36 -168t136 -59q63 0 116.5 30t92.5 83t60.5 125.5t21.5 156.5v346q-35 6 -79 10.5t-85 8.5v111q74 10 167 14q47 2 91.5 2t87.5 -2v-875q37 -6 84.5 -11t90.5 -9v-109q-74 -10 -170 -14q-48 -2 -93.5 -2t-87.5 2 q0 47 3 106.5t12 106.5l-4 2q-43 -106 -135.5 -170.5t-223.5 -64.5q-88 0 -146.5 25.5t-94 69.5t-50 103.5t-14.5 126.5v569q-37 6 -84 11.5t-88 9.5zM330 1292l278 191l289 -187l-74 -110l-217 139l-209 -139z" />
<glyph unicode="&#xfc;" horiz-adv-x="1259" d="M43 895v109q72 10 168 14q48 2 95 2t93 -2v-658q0 -109 36 -168t136 -59q63 0 116.5 30t92.5 83t60.5 125.5t21.5 156.5v346q-35 6 -79 10.5t-85 8.5v111q74 10 167 14q47 2 91.5 2t87.5 -2v-875q37 -6 84.5 -11t90.5 -9v-109q-74 -10 -170 -14q-48 -2 -93.5 -2t-87.5 2 q0 47 3 106.5t12 106.5l-4 2q-43 -106 -135.5 -170.5t-223.5 -64.5q-88 0 -146.5 25.5t-94 69.5t-50 103.5t-14.5 126.5v569q-37 6 -84 11.5t-88 9.5zM310 1339q0 47 31.5 79t78.5 32t78 -32t31 -79t-31 -77.5t-78 -30.5t-78.5 30.5t-31.5 77.5zM703 1339q0 47 31.5 79 t78.5 32t78 -32t31 -79t-31 -77.5t-78 -30.5t-78.5 30.5t-31.5 77.5z" />
<glyph unicode="&#xfd;" horiz-adv-x="1148" d="M500 1262l291 227l92 -127l-310 -202zM12 907v111h467v-111q-61 -20 -133 -22l154 -443q25 -72 43 -131t35 -123h4q12 53 38.5 134t55.5 170l137 393q-72 2 -133 22v111h455v-111q-29 -8 -62 -14t-67 -10l-361 -992q-43 -117 -85 -195.5t-93 -127.5t-114.5 -69.5 t-149.5 -20.5q-29 0 -68 3t-72 9l15 166q35 -10 67.5 -16.5t67.5 -6.5q41 0 75 11.5t62.5 41t55 78t55.5 121.5l43 115h-45l-316 883q-35 4 -68.5 10t-62.5 14z" />
<glyph unicode="&#xff;" horiz-adv-x="1148" d="M12 907v111h467v-111q-61 -20 -133 -22l154 -443q25 -72 43 -131t35 -123h4q12 53 38.5 134t55.5 170l137 393q-72 2 -133 22v111h455v-111q-29 -8 -62 -14t-67 -10l-361 -992q-43 -117 -85 -195.5t-93 -127.5t-114.5 -69.5t-149.5 -20.5q-29 0 -68 3t-72 9l15 166 q35 -10 67.5 -16.5t67.5 -6.5q41 0 75 11.5t62.5 41t55 78t55.5 121.5l43 115h-45l-316 883q-35 4 -68.5 10t-62.5 14zM254 1339q0 47 31.5 79t78.5 32t78 -32t31 -79t-31 -77.5t-78 -30.5t-78.5 30.5t-31.5 77.5zM647 1339q0 47 31.5 79t78.5 32t78 -32t31 -79t-31 -77.5 t-78 -30.5t-78.5 30.5t-31.5 77.5z" />
<glyph unicode="&#x152;" horiz-adv-x="1716" d="M86 680q0 168 50 300t138 224t205 140.5t250 48.5q72 0 138.5 -5.5t127.5 -5.5h574v-319h-131q-8 47 -15.5 92t-11.5 80h-367v-455h295q4 39 11.5 74t17.5 68h115v-420h-115q-23 66 -29 141h-295v-491h375q4 41 11.5 85t17.5 91h131v-328h-580q-86 0 -156.5 -6t-150.5 -6 q-158 0 -272.5 51t-188 143t-109.5 219t-36 279zM283 698q0 -115 23.5 -214t75.5 -172.5t136 -116.5t205 -43q35 0 69.5 3t63.5 9v1057q-66 12 -135 12q-90 0 -170 -36t-139.5 -104.5t-94 -168t-34.5 -226.5z" />
<glyph unicode="&#x153;" horiz-adv-x="1785" d="M80 504q0 113 33.5 210t97 168.5t155 112.5t205.5 41q115 0 213.5 -46t151.5 -146q53 86 140 139t210 53q106 0 183 -33.5t126.5 -92t73 -136.5t23.5 -166q0 -37 -6 -88h-666q-6 -205 76 -297t243 -92q78 0 160 17.5t141 46.5l15 -150q-152 -63 -344 -63q-160 0 -255 54 t-145 152q-53 -90 -146 -148t-230 -58q-117 0 -203 37.5t-142.5 107.5t-83 166t-26.5 211zM262 514q0 -82 16.5 -151.5t51.5 -121t91 -80t134 -28.5q57 0 109.5 22.5t91.5 70.5t62.5 120t23.5 170q0 180 -71 275.5t-218 95.5q-51 0 -103.5 -19.5t-93.5 -63.5t-67.5 -115 t-26.5 -175zM1026 651h477q4 113 -56.5 181.5t-168.5 68.5q-100 0 -168 -69.5t-84 -180.5z" />
<glyph unicode="&#x178;" horiz-adv-x="1218" d="M12 1272v110h486v-110q-70 -18 -152 -25l166 -362q27 -55 51.5 -110.5t46.5 -110.5h4q23 59 51.5 118.5t55.5 116.5l164 348q-41 4 -79 9.5t-73 15.5v110h471v-110q-25 -8 -59.5 -14.5t-63.5 -8.5l-383 -760v-352q96 -6 179 -28v-109h-543v109q82 23 178 28v350l-375 762 q-29 2 -63.5 8.5t-61.5 14.5zM291 1624q0 47 31.5 79t78.5 32t78 -32t31 -79t-31 -77.5t-78 -30.5t-78.5 30.5t-31.5 77.5zM684 1624q0 47 31.5 79t78.5 32t78 -32t31 -79t-31 -77.5t-78 -30.5t-78.5 30.5t-31.5 77.5z" />
<glyph unicode="&#x2c6;" horiz-adv-x="886" d="M160 1292l278 191l289 -187l-74 -110l-217 139l-209 -139z" />
<glyph unicode="&#x2da;" horiz-adv-x="784" d="M160 1333q0 49 18.5 90t50 71t73.5 47.5t89 17.5q49 0 92 -17.5t74 -47.5t49.5 -71t18.5 -90q0 -47 -18.5 -87t-50.5 -70.5t-74 -48t-91 -17.5q-98 0 -164.5 62.5t-66.5 160.5zM279 1333q0 -47 32.5 -80.5t79.5 -33.5t81 33.5t34 80.5t-34 82t-81 35t-79.5 -35t-32.5 -82 z" />
<glyph unicode="&#x2dc;" horiz-adv-x="1015" d="M186 1370q37 37 88.5 60.5t108.5 23.5q51 0 89 -15.5t69.5 -32.5t64.5 -32.5t74 -15.5q43 0 78 18.5t63 46.5l43 -125q-31 -31 -83 -56t-111 -25q-55 0 -93 15t-70 32.5t-64.5 33t-75.5 15.5q-41 0 -75 -18.5t-63 -47.5z" />
<glyph unicode="&#x2013;" horiz-adv-x="1024" d="M0 512v160h1024v-160h-1024z" />
<glyph unicode="&#x2014;" horiz-adv-x="2048" d="M0 512v160h2048v-160h-2048z" />
<glyph unicode="&#x2018;" horiz-adv-x="497" d="M112 1153q3 76 54 175t170 208l80 -72q-98 -106 -110.5 -176.5t22.5 -116.5q20 -29 23 -60.5t-9 -59t-40 -46t-64 -18.5q-55 0 -92 45t-34 121z" />
<glyph unicode="&#x2019;" horiz-adv-x="497" d="M80 1044q98 106 110.5 177t-22.5 116q-23 27 -25 60t10.5 60.5t40 46t64.5 18.5q55 0 92 -45t34 -121t-54 -175.5t-170 -207.5z" />
<glyph unicode="&#x201a;" horiz-adv-x="497" d="M80 -246q98 106 110.5 178t-22.5 117q-23 27 -25 58.5t10.5 59.5t40 46t64.5 18q55 0 92 -45t34 -119.5t-54 -174t-170 -207.5z" />
<glyph unicode="&#x201c;" horiz-adv-x="886" d="M112 1153q3 76 54 175t170 208l80 -72q-98 -106 -110.5 -176.5t22.5 -116.5q20 -29 23 -60.5t-9 -59t-40 -46t-64 -18.5q-55 0 -92 45t-34 121zM501 1153q3 76 54 175t170 208l80 -72q-98 -106 -110.5 -176.5t22.5 -116.5q20 -29 23 -60.5t-9 -59t-39.5 -46t-64.5 -18.5 q-55 0 -92 45t-34 121z" />
<glyph unicode="&#x201d;" horiz-adv-x="886" d="M80 1044q98 106 110.5 177t-22.5 116q-23 27 -25 60t10.5 60.5t40 46t64.5 18.5q55 0 92 -45t34 -121t-54 -175.5t-170 -207.5zM469 1044q98 106 110.5 177t-22.5 116q-23 27 -25 60t10.5 60.5t40 46t64.5 18.5q55 0 92 -45t34 -121t-54 -175.5t-170 -207.5z" />
<glyph unicode="&#x201e;" horiz-adv-x="886" d="M80 -246q98 106 110.5 178t-22.5 117q-23 27 -25 58.5t10.5 59.5t40 46t64.5 18q55 0 92 -45t34 -119.5t-54 -174t-170 -207.5zM469 -246q98 106 110.5 178t-22.5 117q-23 27 -25 58.5t10.5 59.5t40 46t64.5 18q55 0 92 -45t34 -119.5t-54 -174t-170 -207.5z" />
<glyph unicode="&#x2022;" horiz-adv-x="880" d="M182 598q0 51 19.5 96t53.5 79t78 53.5t95 19.5t96 -19.5t79 -53.5t53.5 -79t19.5 -96t-19.5 -96t-53.5 -79t-79 -53.5t-96 -19.5t-95 19.5t-78 53.5t-53.5 79t-19.5 96z" />
<glyph unicode="&#x2026;" horiz-adv-x="1384" d="M106 109q0 53 37 90t90 37t90 -37t37 -90t-36.5 -90t-90.5 -37q-53 0 -90 37t-37 90zM555 109q0 53 37 90t90 37t90 -37t37 -90t-37 -90t-90 -37t-90 37t-37 90zM1004 109q0 53 36.5 90t89.5 37t90 -37t37 -90t-36.5 -90t-90.5 -37q-53 0 -89.5 37t-36.5 90z" />
<glyph unicode="&#x2039;" horiz-adv-x="641" d="M109 504l247 370l138 -77l-203 -291l201 -287l-142 -80z" />
<glyph unicode="&#x203a;" horiz-adv-x="641" d="M147 217l203 291l-200 287l141 79l241 -364l-247 -371z" />
<glyph unicode="&#x2044;" horiz-adv-x="858" d="M-25 -178l883 1726l148 -71l-883 -1727z" />
<glyph unicode="&#x20ac;" horiz-adv-x="1126" d="M27 459v114h161q-2 23 -2 44v45v40q0 20 2 41h-161v117h174q18 121 60 221.5t109.5 172t160 110.5t210.5 39q63 0 132 -8.5t143 -24.5v-303h-115q-18 80 -22 160q-41 10 -81 15t-79 5q-74 0 -130.5 -28.5t-95 -80t-62 -123t-34.5 -155.5h387v-117h-395v-57v-56 q0 -28 2 -57h393v-114h-378q27 -160 106.5 -241t230.5 -81q70 0 140.5 14.5t130.5 43.5l22 -152q-72 -31 -160 -47t-180 -16q-211 0 -335.5 121.5t-159.5 357.5h-174z" />
<glyph unicode="&#x2122;" horiz-adv-x="1705" d="M90 1147v235h559v-235h-88q-6 33 -11 66.5t-9 62.5h-101v-389q29 -4 58.5 -9.5t56.5 -11.5v-82h-369v82q25 6 54.5 11.5t58.5 9.5v389h-100q-4 -29 -9.5 -62.5t-11.5 -66.5h-88zM674 784v82q23 6 44 9.5t44 7.5l69 399q-53 6 -98 18v82h297l92 -323l23 -96l18 86l103 333 h293v-82q-43 -12 -97 -18l70 -399q23 -2 44 -6.5t42 -8.5v-84h-305v82q37 10 78 17l-37 233l-15 101l-24 -87l-103 -346h-145l-102 349l-21 84l-8 -68l-43 -266q23 -4 43 -8.5t39 -8.5v-82h-301z" />
<glyph unicode="&#xe000;" horiz-adv-x="1020" d="M0 1020h1020v-1020h-1020v1020z" />
<glyph unicode="&#xfb01;" horiz-adv-x="1300" d="M20 874v144h224v45q0 227 132 335.5t363 108.5q78 0 155 -11t144 -28l-37 -151q-63 16 -133.5 27.5t-130.5 11.5q-170 0 -239.5 -73t-69.5 -204v-61h657v-881q92 -6 172 -28v-109h-518v109q76 23 162 28v737h-473v-737q86 -6 162 -28v-109h-524v109q82 23 178 28v737 h-224z" />
<glyph unicode="&#xfb02;" horiz-adv-x="1300" d="M20 874v144h224v104q0 188 118.5 286.5t376.5 98.5q84 0 172 -8t174 -20v-1342q92 -6 172 -28v-109h-518v109q76 23 162 28v1206q-47 8 -94 12.5t-92 4.5q-152 0 -219.5 -61.5t-67.5 -190.5v-90h285v-144h-285v-737q86 -6 162 -28v-109h-524v109q82 23 178 28v737h-224z " />
<glyph unicode="&#xfb03;" horiz-adv-x="1943" d="M20 874v144h224v45q0 86 21.5 165t73.5 137t140 93t219 35q100 0 190.5 -18.5t168.5 -49.5q57 37 136 59.5t193 22.5q76 0 153 -11t142 -28l-36 -151q-59 16 -131 27.5t-132 11.5q-168 0 -237.5 -73t-69.5 -204v-61h654v-881q92 -6 172 -28v-109h-519v109q76 23 162 28 v737h-469v-737q86 -6 162 -28v-109h-508v109q76 23 162 28v737h-463v-737q86 -6 162 -28v-109h-524v109q82 23 178 28v737h-224zM428 1018h463v47q0 55 11 116.5t40 110.5q-59 27 -120.5 38t-121.5 11q-141 0 -206.5 -63.5t-65.5 -194.5v-65z" />
<glyph unicode="&#xfb04;" horiz-adv-x="1943" d="M20 874v144h224v45q0 86 21.5 165t73.5 137t140 93t219 35q96 0 184.5 -17.5t161.5 -45.5q59 39 142.5 58t199.5 19q82 0 171.5 -8t171.5 -20v-1342q92 -6 172 -28v-109h-519v109q76 23 162 28v1206q-94 16 -182 17q-154 0 -220.5 -61.5t-66.5 -190.5v-90h285v-144h-285 v-737q86 -6 162 -28v-109h-508v109q76 23 162 28v737h-463v-737q86 -6 162 -28v-109h-524v109q82 23 178 28v737h-224zM428 1018h463v104q0 106 41 176q-59 25 -115.5 34t-116.5 9q-141 0 -206.5 -63.5t-65.5 -194.5v-65z" />
</font>
</defs>
</svg>
